LibreBaskerville-Italic.ufo
<glyph name="parenleft" format="1">
  <advance width="337"/>
  <unicode hex="0028"/>
  <outline>
    <contour>
      <point x="419" y="831" type="line"/>
      <point x="170" y="633"/>
      <point x="32" y="400"/>
      <point x="32" y="167" type="curve" smooth="yes"/>
      <point x="32" y="39"/>
      <point x="75" y="-83"/>
      <point x="160" y="-194" type="curve"/>
      <point x="198" y="-166" type="line"/>
      <point x="146" y="-85"/>
      <point x="122" y="0"/>
      <point x="122" y="101" type="curve" smooth="yes"/>
      <point x="122" y="385"/>
      <point x="219" y="576"/>
      <point x="443" y="803" type="curve"/>
    </contour>
  </outline>
</glyph>
<glyph name="parenright" format="1">
  <advance width="335"/>
  <unicode hex="0029"/>
  <outline>
    <contour>
      <point x="153" y="803" type="line"/>
      <point x="201" y="701"/>
      <point x="224" y="623"/>
      <point x="224" y="537" type="curve" smooth="yes"/>
      <point x="224" y="268"/>
      <point x="72" y="-7"/>
      <point x="-115" y="-166" type="curve"/>
      <point x="-92" y="-194" type="line"/>
      <point x="163" y="4"/>
      <point x="310" y="245"/>
      <point x="310" y="482" type="curve" smooth="yes"/>
      <point x="310" y="605"/>
      <point x="271" y="723"/>
      <point x="192" y="831" type="curve"/>
    </contour>
  </outline>
</glyph>
<glyph name="plus" format="1">
  <advance width="578"/>
  <unicode hex="002B"/>
  <outline>
    <contour>
      <point x="523" y="363" type="line"/>
      <point x="55" y="363" type="line"/>
      <point x="55" y="313" type="line"/>
      <point x="523" y="313" type="line"/>
    </contour>
    <contour>
      <point x="315" y="104" type="line"/>
      <point x="315" y="572" type="line"/>
      <point x="263" y="572" type="line"/>
      <point x="263" y="104" type="line"/>
    </contour>
  </outline>
</glyph>
<glyph name="comma" format="1">
  <advance width="265"/>
  <unicode hex="002C"/>
  <outline>
    <contour>
      <point x="71" y="3" type="curve"/>
      <point x="71" y="-36"/>
      <point x="32" y="-93"/>
      <point x="-39" y="-143" type="curve"/>
      <point x="-16" y="-175" type="line"/>
      <point x="84" y="-103"/>
      <point x="139" y="-15"/>
      <point x="139" y="59" type="curve" smooth="yes"/>
      <point x="139" y="97"/>
      <point x="109" y="130"/>
      <point x="68" y="130" type="curve" smooth="yes"/>
      <point x="29" y="130"/>
      <point x="-1" y="98"/>
      <point x="-1" y="58" type="curve" smooth="yes"/>
      <point x="-1" y="24"/>
      <point x="16" y="0"/>
      <point x="50" y="0" type="curve" smooth="yes"/>
      <point x="56" y="0"/>
      <point x="63" y="1"/>
    </contour>
  </outline>
</glyph>
<glyph name="hyphen" format="1">
  <advance width="465"/>
  <unicode hex="002D"/>
  <outline>
    <contour>
      <point x="369" y="248" type="line"/>
      <point x="392" y="331" type="line"/>
      <point x="83" y="331" type="line"/>
      <point x="60" y="248" type="line"/>
    </contour>
  </outline>
</glyph>
<glyph name="slash" format="1">
  <advance width="390"/>
  <unicode hex="002F"/>
  <outline>
    <contour>
      <point x="457" y="770" type="line"/>
      <point x="395" y="770" type="line"/>
      <point x="-29" y="0" type="line"/>
      <point x="40" y="0" type="line"/>
    </contour>
  </outline>
</glyph>
<glyph name="zero" format="1">
  <advance width="656"/>
  <unicode hex="0030"/>
  <outline>
    <contour>
      <point x="260" y="-10" type="curve" smooth="yes"/>
      <point x="435" y="-10"/>
      <point x="629" y="271"/>
      <point x="629" y="525" type="curve" smooth="yes"/>
      <point x="629" y="678"/>
      <point x="552" y="780"/>
      <point x="437" y="780" type="curve" smooth="yes"/>
      <point x="257" y="780"/>
      <point x="69" y="514"/>
      <point x="69" y="258" type="curve" smooth="yes"/>
      <point x="69" y="98"/>
      <point x="146" y="-10"/>
    </contour>
    <contour>
      <point x="427" y="728" type="curve" smooth="yes"/>
      <point x="485" y="728"/>
      <point x="517" y="681"/>
      <point x="517" y="598" type="curve" smooth="yes"/>
      <point x="517" y="337"/>
      <point x="388" y="43"/>
      <point x="273" y="43" type="curve" smooth="yes"/>
      <point x="214" y="43"/>
      <point x="180" y="93"/>
      <point x="180" y="179" type="curve" smooth="yes"/>
      <point x="180" y="435"/>
      <point x="312" y="728"/>
    </contour>
  </outline>
</glyph>
<glyph name="one" format="1">
  <advance width="474"/>
  <unicode hex="0031"/>
  <outline>
    <contour>
      <point x="426" y="780" type="line"/>
      <point x="389" y="780" type="line"/>
      <point x="317" y="709"/>
      <point x="236" y="645"/>
      <point x="121" y="645" type="curve"/>
      <point x="115" y="603" type="line"/>
      <point x="192" y="603"/>
      <point x="239" y="619"/>
      <point x="261" y="619" type="curve" smooth="yes"/>
      <point x="272" y="619"/>
      <point x="276" y="616"/>
      <point x="276" y="606" type="curve" smooth="yes"/>
      <point x="276" y="602"/>
      <point x="275" y="596"/>
      <point x="274" y="590" type="curve" smooth="yes"/>
      <point x="172" y="179" type="line" smooth="yes"/>
      <point x="145" y="69"/>
      <point x="100" y="40"/>
      <point x="7" y="40" type="curve"/>
      <point x="-4" y="0" type="line"/>
      <point x="366" y="0" type="line"/>
      <point x="377" y="40" type="line"/>
      <point x="295" y="40"/>
      <point x="270" y="74"/>
      <point x="270" y="127" type="curve" smooth="yes"/>
      <point x="270" y="166"/>
      <point x="284" y="215"/>
      <point x="297" y="268" type="curve" smooth="yes"/>
    </contour>
  </outline>
</glyph>
<glyph name="two" format="1">
  <advance width="625"/>
  <unicode hex="0032"/>
  <outline>
    <contour>
      <point x="165" y="103" type="line"/>
      <point x="471" y="322"/>
      <point x="590" y="461"/>
      <point x="590" y="597" type="curve" smooth="yes"/>
      <point x="590" y="708"/>
      <point x="506" y="781"/>
      <point x="380" y="781" type="curve" smooth="yes"/>
      <point x="236" y="781"/>
      <point x="119" y="685"/>
      <point x="119" y="566" type="curve" smooth="yes"/>
      <point x="119" y="493"/>
      <point x="163" y="443"/>
      <point x="228" y="443" type="curve" smooth="yes"/>
      <point x="269" y="443"/>
      <point x="302" y="463"/>
      <point x="314" y="496" type="curve"/>
      <point x="254" y="496"/>
      <point x="220" y="531"/>
      <point x="220" y="591" type="curve" smooth="yes"/>
      <point x="220" y="666"/>
      <point x="281" y="728"/>
      <point x="359" y="728" type="curve" smooth="yes"/>
      <point x="429" y="728"/>
      <point x="472" y="677"/>
      <point x="472" y="600" type="curve" smooth="yes"/>
      <point x="472" y="461"/>
      <point x="354" y="319"/>
      <point x="20" y="53" type="curve"/>
      <point x="11" y="0" type="line"/>
      <point x="475" y="0" type="line"/>
      <point x="538" y="173" type="line"/>
      <point x="501" y="173" type="line"/>
      <point x="464" y="115"/>
      <point x="434" y="98"/>
      <point x="369" y="98" type="curve" smooth="yes"/>
      <point x="165" y="98" type="line"/>
    </contour>
  </outline>
</glyph>
<glyph name="five" format="1">
  <advance width="610"/>
  <unicode hex="0035"/>
  <outline>
    <contour>
      <point x="318" y="491" type="curve" smooth="yes"/>
      <point x="283" y="491"/>
      <point x="233" y="484"/>
      <point x="215" y="476" type="curve"/>
      <point x="211" y="482" type="line"/>
      <point x="278" y="679" type="line"/>
      <point x="320" y="669"/>
      <point x="378" y="661"/>
      <point x="417" y="661" type="curve" smooth="yes"/>
      <point x="505" y="661"/>
      <point x="563" y="700"/>
      <point x="591" y="780" type="curve"/>
      <point x="585" y="781" type="line"/>
      <point x="551" y="769"/>
      <point x="491" y="762"/>
      <point x="418" y="762" type="curve" smooth="yes"/>
      <point x="347" y="762"/>
      <point x="287" y="769"/>
      <point x="255" y="780" type="curve"/>
      <point x="130" y="412" type="line" smooth="yes"/>
      <point x="129" y="409"/>
      <point x="128" y="403"/>
      <point x="128" y="399" type="curve" smooth="yes"/>
      <point x="128" y="389"/>
      <point x="135" y="382"/>
      <point x="143" y="382" type="curve" smooth="yes"/>
      <point x="168" y="382"/>
      <point x="199" y="441"/>
      <point x="295" y="441" type="curve" smooth="yes"/>
      <point x="387" y="441"/>
      <point x="435" y="385"/>
      <point x="435" y="280" type="curve" smooth="yes"/>
      <point x="435" y="142"/>
      <point x="354" y="42"/>
      <point x="243" y="42" type="curve" smooth="yes"/>
      <point x="172" y="42"/>
      <point x="126" y="82"/>
      <point x="126" y="145" type="curve" smooth="yes"/>
      <point x="126" y="199"/>
      <point x="159" y="240"/>
      <point x="202" y="240" type="curve"/>
      <point x="197" y="265"/>
      <point x="169" y="284"/>
      <point x="137" y="284" type="curve" smooth="yes"/>
      <point x="79" y="284"/>
      <point x="31" y="222"/>
      <point x="31" y="149" type="curve" smooth="yes"/>
      <point x="31" y="53"/>
      <point x="113" y="-10"/>
      <point x="237" y="-10" type="curve" smooth="yes"/>
      <point x="411" y="-10"/>
      <point x="553" y="115"/>
      <point x="553" y="268" type="curve" smooth="yes"/>
      <point x="553" y="397"/>
      <point x="453" y="491"/>
    </contour>
  </outline>
</glyph>
<glyph name="seven" format="1">
  <advance width="524"/>
  <unicode hex="0037"/>
  <outline>
    <contour>
      <point x="499" y="680" type="line"/>
      <point x="218" y="280" type="line" smooth="yes"/>
      <point x="83" y="88"/>
      <point x="62" y="57"/>
      <point x="62" y="31" type="curve" smooth="yes"/>
      <point x="62" y="6"/>
      <point x="82" y="-10"/>
      <point x="110" y="-10" type="curve" smooth="yes"/>
      <point x="149" y="-10"/>
      <point x="178" y="21"/>
      <point x="242" y="136" type="curve" smooth="yes"/>
      <point x="413" y="442"/>
      <point x="516" y="634"/>
      <point x="596" y="750" type="curve"/>
      <point x="599" y="770" type="line"/>
      <point x="296" y="770" type="line" smooth="yes"/>
      <point x="243" y="770"/>
      <point x="223" y="778"/>
      <point x="223" y="798" type="curve" smooth="yes"/>
      <point x="223" y="802"/>
      <point x="224" y="803"/>
      <point x="224" y="806" type="curve"/>
      <point x="194" y="806" type="line"/>
      <point x="101" y="569" type="line"/>
      <point x="144" y="569" type="line"/>
      <point x="165" y="608" type="line" smooth="yes"/>
      <point x="200" y="674"/>
      <point x="216" y="680"/>
      <point x="313" y="680" type="curve" smooth="yes"/>
    </contour>
  </outline>
</glyph>
<glyph name="colon" format="1">
  <advance width="304"/>
  <unicode hex="003A"/>
  <outline>
    <contour>
      <point x="84" y="-10" type="curve" smooth="yes"/>
      <point x="123" y="-10"/>
      <point x="155" y="20"/>
      <point x="155" y="59" type="curve" smooth="yes"/>
      <point x="155" y="97"/>
      <point x="125" y="130"/>
      <point x="84" y="130" type="curve" smooth="yes"/>
      <point x="45" y="130"/>
      <point x="15" y="98"/>
      <point x="15" y="58" type="curve" smooth="yes"/>
      <point x="15" y="18"/>
      <point x="47" y="-10"/>
    </contour>
    <contour>
      <point x="166" y="300" type="curve" smooth="yes"/>
      <point x="205" y="300"/>
      <point x="237" y="330"/>
      <point x="237" y="369" type="curve" smooth="yes"/>
      <point x="237" y="407"/>
      <point x="207" y="440"/>
      <point x="166" y="440" type="curve" smooth="yes"/>
      <point x="127" y="440"/>
      <point x="97" y="408"/>
      <point x="97" y="368" type="curve" smooth="yes"/>
      <point x="97" y="328"/>
      <point x="129" y="300"/>
    </contour>
  </outline>
</glyph>
<glyph name="less" format="1">
  <advance width="618"/>
  <unicode hex="003C"/>
  <outline>
    <contour>
      <point x="101" y="336" type="line"/>
      <point x="514" y="544" type="line"/>
      <point x="514" y="600" type="line"/>
      <point x="56" y="368" type="line"/>
      <point x="56" y="304" type="line"/>
      <point x="514" y="72" type="line"/>
      <point x="514" y="126" type="line"/>
    </contour>
  </outline>
</glyph>
<glyph name="equal" format="1">
  <advance width="637"/>
  <unicode hex="003D"/>
  <outline>
    <contour>
      <point x="538" y="302" type="line"/>
      <point x="84" y="302" type="line"/>
      <point x="70" y="252" type="line"/>
      <point x="524" y="252" type="line"/>
    </contour>
    <contour>
      <point x="588" y="472" type="line"/>
      <point x="134" y="472" type="line"/>
      <point x="120" y="422" type="line"/>
      <point x="574" y="422" type="line"/>
    </contour>
  </outline>
</glyph>
<glyph name="B" format="1">
  <advance width="736"/>
  <unicode hex="0042"/>
  <outline>
    <contour>
      <point x="280" y="385" type="line"/>
      <point x="337" y="385" type="line" smooth="yes"/>
      <point x="472" y="385"/>
      <point x="537" y="340"/>
      <point x="537" y="239" type="curve" smooth="yes"/>
      <point x="537" y="128"/>
      <point x="451" y="45"/>
      <point x="304" y="45" type="curve" smooth="yes"/>
      <point x="262" y="45"/>
      <point x="210" y="51"/>
      <point x="210" y="105" type="curve" smooth="yes"/>
      <point x="210" y="130"/>
      <point x="224" y="182"/>
      <point x="231" y="207" type="curve" smooth="yes"/>
    </contour>
    <contour>
      <point x="-29" y="0" type="line"/>
      <point x="337" y="0" type="line" smooth="yes"/>
      <point x="520" y="0"/>
      <point x="654" y="85"/>
      <point x="654" y="221" type="curve" smooth="yes"/>
      <point x="654" y="318"/>
      <point x="590" y="383"/>
      <point x="474" y="407" type="curve"/>
      <point x="474" y="411" type="line"/>
      <point x="567" y="425"/>
      <point x="686" y="467"/>
      <point x="686" y="597" type="curve" smooth="yes"/>
      <point x="686" y="735"/>
      <point x="548" y="770"/>
      <point x="433" y="770" type="curve" smooth="yes"/>
      <point x="165" y="770" type="line"/>
      <point x="154" y="730" type="line"/>
      <point x="220" y="730"/>
      <point x="246" y="714"/>
      <point x="246" y="669" type="curve" smooth="yes"/>
      <point x="246" y="651"/>
      <point x="242" y="628"/>
      <point x="235" y="600" type="curve" smooth="yes"/>
      <point x="117" y="159" type="line" smooth="yes"/>
      <point x="89" y="55"/>
      <point x="63" y="40"/>
      <point x="-18" y="40" type="curve"/>
    </contour>
    <contour>
      <point x="349" y="645" type="line" smooth="yes"/>
      <point x="364" y="702"/>
      <point x="384" y="725"/>
      <point x="420" y="725" type="curve" smooth="yes"/>
      <point x="535" y="725"/>
      <point x="580" y="688"/>
      <point x="580" y="602" type="curve" smooth="yes"/>
      <point x="580" y="503"/>
      <point x="493" y="436"/>
      <point x="367" y="436" type="curve" smooth="yes"/>
      <point x="293" y="436" type="line"/>
    </contour>
  </outline>
</glyph>
<glyph name="D" format="1">
  <advance width="836"/>
  <unicode hex="0044"/>
  <outline>
    <contour>
      <point x="461" y="830" type="move" name="topcap"/>
    </contour>
    <contour>
      <point x="241" y="-2" type="move" name="bottom"/>
    </contour>
    <contour>
      <point x="152" y="730" type="line"/>
      <point x="171" y="730" type="line" smooth="yes"/>
      <point x="204" y="730"/>
      <point x="254" y="727"/>
      <point x="254" y="688" type="curve" smooth="yes"/>
      <point x="254" y="665"/>
      <point x="237" y="618"/>
      <point x="232" y="600" type="curve" smooth="yes"/>
      <point x="117" y="158" type="line" smooth="yes"/>
      <point x="90" y="55"/>
      <point x="68" y="40"/>
      <point x="-18" y="40" type="curve"/>
      <point x="-29" y="0" type="line"/>
      <point x="321" y="0" type="line" smooth="yes"/>
      <point x="450" y="0"/>
      <point x="565" y="29"/>
      <point x="658" y="121" type="curve" smooth="yes"/>
      <point x="739" y="201"/>
      <point x="797" y="326"/>
      <point x="797" y="447" type="curve" smooth="yes"/>
      <point x="797" y="540"/>
      <point x="763" y="631"/>
      <point x="688" y="693" type="curve" smooth="yes"/>
      <point x="618" y="751"/>
      <point x="527" y="770"/>
      <point x="436" y="770" type="curve" smooth="yes"/>
      <point x="165" y="770" type="line"/>
    </contour>
    <contour>
      <point x="355" y="669" type="line" smooth="yes"/>
      <point x="367" y="714"/>
      <point x="389" y="720"/>
      <point x="428" y="720" type="curve" smooth="yes"/>
      <point x="585" y="720"/>
      <point x="681" y="624"/>
      <point x="681" y="457" type="curve" smooth="yes"/>
      <point x="681" y="279"/>
      <point x="573" y="44"/>
      <point x="312" y="44" type="curve" smooth="yes"/>
      <point x="283" y="44"/>
      <point x="212" y="47"/>
      <point x="212" y="118" type="curve" smooth="yes"/>
      <point x="212" y="132"/>
      <point x="215" y="150"/>
      <point x="237" y="231" type="curve" smooth="yes"/>
    </contour>
  </outline>
</glyph>
<glyph name="G" format="1">
  <advance width="809"/>
  <unicode hex="0047"/>
  <outline>
    <contour>
      <point x="544" y="830" type="move" name="topcap"/>
    </contour>
    <contour>
      <point x="361" y="0" type="move" name="bottom"/>
    </contour>
    <contour>
      <point x="387" y="44" type="curve" smooth="yes"/>
      <point x="260" y="44"/>
      <point x="194" y="130"/>
      <point x="194" y="300" type="curve" smooth="yes"/>
      <point x="194" y="540"/>
      <point x="339" y="728"/>
      <point x="526" y="728" type="curve" smooth="yes"/>
      <point x="646" y="728"/>
      <point x="705" y="672"/>
      <point x="718" y="550" type="curve"/>
      <point x="756" y="550" type="line"/>
      <point x="792" y="770" type="line"/>
      <point x="755" y="770" type="line"/>
      <point x="718" y="720" type="line"/>
      <point x="653" y="761"/>
      <point x="590" y="780"/>
      <point x="518" y="780" type="curve" smooth="yes"/>
      <point x="283" y="780"/>
      <point x="73" y="554"/>
      <point x="73" y="301" type="curve" smooth="yes"/>
      <point x="73" y="110"/>
      <point x="185" y="-10"/>
      <point x="365" y="-10" type="curve" smooth="yes"/>
      <point x="512" y="-10"/>
      <point x="582" y="39"/>
      <point x="643" y="49" type="curve"/>
      <point x="644" y="88"/>
      <point x="656" y="127"/>
      <point x="666" y="166" type="curve" smooth="yes"/>
      <point x="699" y="292"/>
      <point x="713" y="300"/>
      <point x="770" y="300" type="curve"/>
      <point x="780" y="339" type="line"/>
      <point x="506" y="339" type="line"/>
      <point x="497" y="300" type="line"/>
      <point x="563" y="300"/>
      <point x="582" y="275"/>
      <point x="582" y="222" type="curve" smooth="yes"/>
      <point x="582" y="106"/>
      <point x="499" y="44"/>
    </contour>
  </outline>
</glyph>
<glyph name="J" format="1">
  <advance width="543"/>
  <unicode hex="004A"/>
  <outline>
    <contour>
      <point x="484" y="830" type="move" name="topcap"/>
    </contour>
    <contour>
      <point x="134" y="43" type="curve" smooth="yes"/>
      <point x="100" y="43"/>
      <point x="75" y="61"/>
      <point x="75" y="87" type="curve" smooth="yes"/>
      <point x="75" y="122"/>
      <point x="127" y="123"/>
      <point x="127" y="173" type="curve" smooth="yes"/>
      <point x="127" y="207"/>
      <point x="101" y="231"/>
      <point x="65" y="231" type="curve" smooth="yes"/>
      <point x="15" y="231"/>
      <point x="-23" y="184"/>
      <point x="-23" y="121" type="curve" smooth="yes"/>
      <point x="-23" y="38"/>
      <point x="34" y="-10"/>
      <point x="135" y="-10" type="curve" smooth="yes"/>
      <point x="254" y="-10"/>
      <point x="342" y="60"/>
      <point x="375" y="186" type="curve" smooth="yes"/>
      <point x="475" y="566" type="line" smooth="yes"/>
      <point x="511" y="704"/>
      <point x="531" y="730"/>
      <point x="612" y="730" type="curve"/>
      <point x="623" y="770" type="line"/>
      <point x="298" y="770" type="line"/>
      <point x="287" y="730" type="line"/>
      <point x="374" y="730"/>
      <point x="396" y="720"/>
      <point x="396" y="682" type="curve" smooth="yes"/>
      <point x="396" y="664"/>
      <point x="391" y="637"/>
      <point x="381" y="600" type="curve" smooth="yes"/>
      <point x="282" y="222" type="line" smooth="yes"/>
      <point x="252" y="109"/>
      <point x="199" y="43"/>
    </contour>
  </outline>
</glyph>
<glyph name="K" format="1">
  <advance width="825"/>
  <unicode hex="004B"/>
  <outline>
    <contour>
      <point x="358" y="0" type="move" name="bottom"/>
    </contour>
    <contour>
      <point x="328" y="566" type="line" smooth="yes"/>
      <point x="364" y="702"/>
      <point x="387" y="730"/>
      <point x="475" y="730" type="curve"/>
      <point x="486" y="770" type="line"/>
      <point x="161" y="770" type="line"/>
      <point x="150" y="730" type="line"/>
      <point x="222" y="730"/>
      <point x="249" y="723"/>
      <point x="249" y="682" type="curve" smooth="yes"/>
      <point x="249" y="663"/>
      <point x="244" y="637"/>
      <point x="234" y="600" type="curve" smooth="yes"/>
      <point x="117" y="158" type="line" smooth="yes"/>
      <point x="91" y="60"/>
      <point x="66" y="40"/>
      <point x="-8" y="40" type="curve"/>
      <point x="-19" y="0" type="line"/>
      <point x="300" y="0" type="line"/>
      <point x="312" y="40" type="line"/>
      <point x="241" y="40"/>
      <point x="211" y="53"/>
      <point x="211" y="98" type="curve" smooth="yes"/>
      <point x="211" y="116"/>
      <point x="215" y="139"/>
      <point x="223" y="168" type="curve" smooth="yes"/>
      <point x="273" y="357" type="line"/>
      <point x="313" y="385" type="line"/>
      <point x="471" y="173" type="line" smooth="yes"/>
      <point x="510" y="120"/>
      <point x="528" y="87"/>
      <point x="528" y="68" type="curve" smooth="yes"/>
      <point x="528" y="45"/>
      <point x="501" y="40"/>
      <point x="454" y="40" type="curve"/>
      <point x="443" y="0" type="line"/>
      <point x="757" y="0" type="line"/>
      <point x="768" y="40" type="line"/>
      <point x="714" y="40"/>
      <point x="701" y="45"/>
      <point x="594" y="187" type="curve" smooth="yes"/>
      <point x="398" y="445" type="line"/>
      <point x="552" y="553" type="line" smooth="yes"/>
      <point x="762" y="701"/>
      <point x="793" y="730"/>
      <point x="836" y="730" type="curve"/>
      <point x="846" y="770" type="line"/>
      <point x="562" y="770" type="line"/>
      <point x="552" y="730" type="line"/>
      <point x="595" y="730"/>
      <point x="619" y="721"/>
      <point x="619" y="702" type="curve" smooth="yes"/>
      <point x="619" y="677"/>
      <point x="582" y="635"/>
      <point x="498" y="575" type="curve" smooth="yes"/>
      <point x="291" y="427" type="line"/>
    </contour>
  </outline>
</glyph>
<glyph name="L" format="1">
  <advance width="702"/>
  <unicode hex="004C"/>
  <outline>
    <contour>
      <point x="339" y="830" type="move" name="topcap"/>
    </contour>
    <contour>
      <point x="247" y="0" type="move" name="bottom"/>
    </contour>
    <contour>
      <point x="-25" y="0" type="line"/>
      <point x="568" y="0" type="line"/>
      <point x="656" y="231" type="line"/>
      <point x="609" y="231" type="line"/>
      <point x="552" y="93"/>
      <point x="485" y="43"/>
      <point x="326" y="43" type="curve" smooth="yes"/>
      <point x="243" y="43"/>
      <point x="214" y="66"/>
      <point x="214" y="114" type="curve" smooth="yes"/>
      <point x="214" y="130"/>
      <point x="217" y="148"/>
      <point x="223" y="170" type="curve" smooth="yes"/>
      <point x="327" y="566" type="line" smooth="yes"/>
      <point x="363" y="702"/>
      <point x="386" y="730"/>
      <point x="474" y="730" type="curve"/>
      <point x="485" y="770" type="line"/>
      <point x="160" y="770" type="line"/>
      <point x="149" y="730" type="line"/>
      <point x="221" y="730"/>
      <point x="248" y="723"/>
      <point x="248" y="682" type="curve" smooth="yes"/>
      <point x="248" y="663"/>
      <point x="242" y="637"/>
      <point x="233" y="600" type="curve" smooth="yes"/>
      <point x="120" y="158" type="line" smooth="yes"/>
      <point x="96" y="63"/>
      <point x="73" y="40"/>
      <point x="-14" y="40" type="curve"/>
    </contour>
  </outline>
</glyph>
<glyph name="M" format="1">
  <advance width="1020"/>
  <unicode hex="004D"/>
  <outline>
    <contour>
      <point x="845" y="655" type="line"/>
      <point x="435" y="0" type="line"/>
      <point x="392" y="0" type="line"/>
      <point x="314" y="655" type="line"/>
      <point x="310" y="655" type="line"/>
      <point x="182" y="168" type="line" smooth="yes"/>
      <point x="178" y="152"/>
      <point x="175" y="137"/>
      <point x="175" y="124" type="curve" smooth="yes"/>
      <point x="175" y="70"/>
      <point x="209" y="41"/>
      <point x="261" y="40" type="curve"/>
      <point x="249" y="0" type="line"/>
      <point x="-27" y="0" type="line"/>
      <point x="-16" y="40" type="line"/>
      <point x="46" y="40"/>
      <point x="101" y="90"/>
      <point x="119" y="158" type="curve" smooth="yes"/>
      <point x="236" y="600" type="line" smooth="yes"/>
      <point x="246" y="637"/>
      <point x="251" y="663"/>
      <point x="251" y="682" type="curve" smooth="yes"/>
      <point x="251" y="723"/>
      <point x="224" y="730"/>
      <point x="152" y="730" type="curve"/>
      <point x="163" y="770" type="line"/>
      <point x="403" y="770" type="line"/>
      <point x="474" y="174" type="line"/>
      <point x="478" y="174" type="line"/>
      <point x="855" y="770" type="line"/>
      <point x="1066" y="770" type="line"/>
      <point x="1055" y="730" type="line"/>
      <point x="979" y="730"/>
      <point x="964" y="701"/>
      <point x="928" y="566" type="curve" smooth="yes"/>
      <point x="823" y="168" type="line" smooth="yes"/>
      <point x="815" y="139"/>
      <point x="811" y="116"/>
      <point x="811" y="98" type="curve" smooth="yes"/>
      <point x="811" y="53"/>
      <point x="841" y="40"/>
      <point x="912" y="40" type="curve"/>
      <point x="900" y="0" type="line"/>
      <point x="581" y="0" type="line"/>
      <point x="592" y="40" type="line"/>
      <point x="666" y="40"/>
      <point x="691" y="60"/>
      <point x="717" y="158" type="curve" smooth="yes"/>
      <point x="849" y="655" type="line"/>
    </contour>
  </outline>
</glyph>
<glyph name="N" format="1">
  <advance width="842"/>
  <unicode hex="004E"/>
  <outline>
    <contour>
      <point x="557" y="830" type="move" name="topcap"/>
    </contour>
    <contour>
      <point x="384" y="0" type="move" name="bottom"/>
    </contour>
    <contour>
      <point x="620" y="0" type="line"/>
      <point x="782" y="612" type="line" smooth="yes"/>
      <point x="800" y="680"/>
      <point x="846" y="730"/>
      <point x="897" y="730" type="curve"/>
      <point x="908" y="770" type="line"/>
      <point x="652" y="770" type="line"/>
      <point x="640" y="730" type="line"/>
      <point x="687" y="729"/>
      <point x="724" y="696"/>
      <point x="724" y="639" type="curve" smooth="yes"/>
      <point x="724" y="628"/>
      <point x="722" y="615"/>
      <point x="719" y="602" type="curve" smooth="yes"/>
      <point x="613" y="197" type="line"/>
      <point x="609" y="197" type="line"/>
      <point x="359" y="770" type="line"/>
      <point x="124" y="770" type="line"/>
      <point x="112" y="730" type="line"/>
      <point x="200" y="729"/>
      <point x="259" y="696"/>
      <point x="259" y="633" type="curve" smooth="yes"/>
      <point x="259" y="623"/>
      <point x="258" y="613"/>
      <point x="255" y="602" type="curve" smooth="yes"/>
      <point x="137" y="158" type="line" smooth="yes"/>
      <point x="119" y="90"/>
      <point x="64" y="40"/>
      <point x="2" y="40" type="curve"/>
      <point x="-9" y="0" type="line"/>
      <point x="277" y="0" type="line"/>
      <point x="289" y="40" type="line"/>
      <point x="230" y="41"/>
      <point x="194" y="70"/>
      <point x="194" y="125" type="curve" smooth="yes"/>
      <point x="194" y="138"/>
      <point x="196" y="152"/>
      <point x="200" y="168" type="curve" smooth="yes"/>
      <point x="314" y="602" type="line"/>
      <point x="318" y="602" type="line"/>
      <point x="580" y="0" type="line"/>
    </contour>
  </outline>
</glyph>
<glyph name="O" format="1">
  <advance width="820"/>
  <unicode hex="004F"/>
  <outline>
    <contour>
      <point x="534" y="830" type="move" name="topcap"/>
    </contour>
    <contour>
      <point x="324" y="0" type="move" name="bottom"/>
    </contour>
    <contour>
      <point x="505" y="780" type="curve" smooth="yes"/>
      <point x="275" y="780"/>
      <point x="74" y="558"/>
      <point x="74" y="303" type="curve" smooth="yes"/>
      <point x="74" y="114"/>
      <point x="185" y="-10"/>
      <point x="356" y="-10" type="curve" smooth="yes"/>
      <point x="585" y="-10"/>
      <point x="784" y="212"/>
      <point x="784" y="469" type="curve" smooth="yes"/>
      <point x="784" y="659"/>
      <point x="675" y="780"/>
    </contour>
    <contour>
      <point x="505" y="728" type="curve" smooth="yes"/>
      <point x="613" y="728"/>
      <point x="663" y="655"/>
      <point x="663" y="496" type="curve" smooth="yes"/>
      <point x="663" y="234"/>
      <point x="538" y="44"/>
      <point x="370" y="44" type="curve" smooth="yes"/>
      <point x="256" y="44"/>
      <point x="195" y="131"/>
      <point x="195" y="300" type="curve" smooth="yes"/>
      <point x="195" y="540"/>
      <point x="331" y="728"/>
    </contour>
  </outline>
</glyph>
<glyph name="P" format="1">
  <advance width="667"/>
  <unicode hex="0050"/>
  <outline>
    <contour>
      <point x="275" y="358" type="line"/>
      <point x="347" y="358" type="line" smooth="yes"/>
      <point x="556" y="358"/>
      <point x="708" y="459"/>
      <point x="708" y="598" type="curve" smooth="yes"/>
      <point x="708" y="706"/>
      <point x="606" y="770"/>
      <point x="435" y="770" type="curve" smooth="yes"/>
      <point x="157" y="770" type="line"/>
      <point x="146" y="730" type="line"/>
      <point x="227" y="728"/>
      <point x="250" y="715"/>
      <point x="250" y="675" type="curve" smooth="yes"/>
      <point x="250" y="658"/>
      <point x="246" y="633"/>
      <point x="237" y="600" type="curve" smooth="yes"/>
      <point x="119" y="159" type="line" smooth="yes"/>
      <point x="97" y="77"/>
      <point x="58" y="40"/>
      <point x="-6" y="40" type="curve"/>
      <point x="-17" y="0" type="line"/>
      <point x="315" y="0" type="line"/>
      <point x="326" y="45" type="line"/>
      <point x="250" y="45"/>
      <point x="212" y="65"/>
      <point x="212" y="105" type="curve" smooth="yes"/>
      <point x="212" y="122"/>
      <point x="220" y="160"/>
      <point x="233" y="207" type="curve" smooth="yes"/>
    </contour>
    <contour>
      <point x="351" y="645" type="line" smooth="yes"/>
      <point x="368" y="709"/>
      <point x="383" y="725"/>
      <point x="437" y="725" type="curve" smooth="yes"/>
      <point x="543" y="725"/>
      <point x="597" y="684"/>
      <point x="597" y="604" type="curve" smooth="yes"/>
      <point x="597" y="490"/>
      <point x="488" y="409"/>
      <point x="337" y="409" type="curve" smooth="yes"/>
      <point x="288" y="409" type="line"/>
    </contour>
  </outline>
</glyph>
<glyph name="R" format="1">
  <advance width="763"/>
  <unicode hex="0052"/>
  <outline>
    <contour>
      <point x="464" y="830" type="move" name="topcap"/>
    </contour>
    <contour>
      <point x="337" y="0" type="move" name="bottom"/>
    </contour>
    <contour>
      <point x="280" y="375" type="line"/>
      <point x="368" y="375" type="line"/>
      <point x="515" y="0" type="line"/>
      <point x="705" y="0" type="line"/>
      <point x="716" y="40" type="line"/>
      <point x="629" y="40"/>
      <point x="603" y="68"/>
      <point x="548" y="204" type="curve" smooth="yes"/>
      <point x="474" y="387" type="line"/>
      <point x="606" y="414"/>
      <point x="693" y="489"/>
      <point x="693" y="598" type="curve" smooth="yes"/>
      <point x="693" y="706"/>
      <point x="595" y="770"/>
      <point x="435" y="770" type="curve" smooth="yes"/>
      <point x="157" y="770" type="line"/>
      <point x="146" y="730" type="line"/>
      <point x="227" y="728"/>
      <point x="250" y="715"/>
      <point x="250" y="675" type="curve" smooth="yes"/>
      <point x="250" y="658"/>
      <point x="246" y="633"/>
      <point x="237" y="600" type="curve" smooth="yes"/>
      <point x="119" y="159" type="line" smooth="yes"/>
      <point x="97" y="77"/>
      <point x="58" y="40"/>
      <point x="-6" y="40" type="curve"/>
      <point x="-17" y="0" type="line"/>
      <point x="315" y="0" type="line"/>
      <point x="326" y="45" type="line"/>
      <point x="250" y="45"/>
      <point x="212" y="65"/>
      <point x="212" y="105" type="curve" smooth="yes"/>
      <point x="212" y="122"/>
      <point x="220" y="160"/>
      <point x="233" y="207" type="curve" smooth="yes"/>
    </contour>
    <contour>
      <point x="351" y="645" type="line" smooth="yes"/>
      <point x="368" y="709"/>
      <point x="383" y="725"/>
      <point x="437" y="725" type="curve" smooth="yes"/>
      <point x="531" y="725"/>
      <point x="582" y="684"/>
      <point x="582" y="604" type="curve" smooth="yes"/>
      <point x="582" y="490"/>
      <point x="482" y="426"/>
      <point x="342" y="426" type="curve" smooth="yes"/>
      <point x="293" y="426" type="line"/>
    </contour>
  </outline>
</glyph>
<glyph name="S" format="1">
  <advance width="598"/>
  <unicode hex="0053"/>
  <outline>
    <contour>
      <point x="410" y="830" type="move" name="topcap"/>
    </contour>
    <contour>
      <point x="251" y="0" type="move" name="bottom"/>
    </contour>
    <contour>
      <point x="538" y="713" type="line"/>
      <point x="492" y="759"/>
      <point x="444" y="780"/>
      <point x="382" y="780" type="curve" smooth="yes"/>
      <point x="251" y="780"/>
      <point x="146" y="687"/>
      <point x="146" y="572" type="curve" smooth="yes"/>
      <point x="146" y="387"/>
      <point x="428" y="349"/>
      <point x="428" y="182" type="curve" smooth="yes"/>
      <point x="428" y="102"/>
      <point x="359" y="43"/>
      <point x="264" y="43" type="curve" smooth="yes"/>
      <point x="161" y="43"/>
      <point x="100" y="117"/>
      <point x="91" y="254" type="curve"/>
      <point x="58" y="254" type="line"/>
      <point x="16" y="0" type="line"/>
      <point x="51" y="0" type="line"/>
      <point x="72" y="76" type="line"/>
      <point x="127" y="18"/>
      <point x="189" y="-10"/>
      <point x="263" y="-10" type="curve" smooth="yes"/>
      <point x="404" y="-10"/>
      <point x="517" y="99"/>
      <point x="517" y="234" type="curve" smooth="yes"/>
      <point x="517" y="439"/>
      <point x="244" y="468"/>
      <point x="244" y="612" type="curve" smooth="yes"/>
      <point x="244" y="680"/>
      <point x="303" y="729"/>
      <point x="385" y="729" type="curve" smooth="yes"/>
      <point x="470" y="729"/>
      <point x="508" y="678"/>
      <point x="512" y="558" type="curve"/>
      <point x="546" y="558" type="line"/>
      <point x="588" y="755" type="line"/>
      <point x="558" y="755" type="line"/>
    </contour>
  </outline>
</glyph>
<glyph name="T" format="1">
  <advance width="780"/>
  <unicode hex="0054"/>
  <outline>
    <contour>
      <point x="539" y="830" type="move" name="topcap"/>
    </contour>
    <contour>
      <point x="308" y="0" type="move" name="bottom"/>
    </contour>
    <contour>
      <point x="525" y="610" type="line" smooth="yes"/>
      <point x="550" y="706"/>
      <point x="576" y="728"/>
      <point x="642" y="728" type="curve" smooth="yes"/>
      <point x="735" y="728"/>
      <point x="783" y="685"/>
      <point x="783" y="557" type="curve"/>
      <point x="821" y="557" type="line"/>
      <point x="841" y="770" type="line"/>
      <point x="173" y="770" type="line"/>
      <point x="78" y="557" type="line"/>
      <point x="118" y="557" type="line"/>
      <point x="175" y="665"/>
      <point x="261" y="728"/>
      <point x="378" y="728" type="curve" smooth="yes"/>
      <point x="416" y="728"/>
      <point x="433" y="712"/>
      <point x="433" y="674" type="curve" smooth="yes"/>
      <point x="433" y="658"/>
      <point x="430" y="638"/>
      <point x="424" y="614" type="curve" smooth="yes"/>
      <point x="302" y="158" type="line" smooth="yes"/>
      <point x="274" y="54"/>
      <point x="236" y="40"/>
      <point x="157" y="40" type="curve"/>
      <point x="146" y="0" type="line"/>
      <point x="494" y="0" type="line"/>
      <point x="506" y="40" type="line"/>
      <point x="422" y="40"/>
      <point x="391" y="55"/>
      <point x="391" y="98" type="curve" smooth="yes"/>
      <point x="391" y="116"/>
      <point x="399" y="138"/>
      <point x="407" y="168" type="curve" smooth="yes"/>
    </contour>
  </outline>
</glyph>
<glyph name="V" format="1">
  <advance width="752"/>
  <unicode hex="0056"/>
  <outline>
    <contour>
      <point x="248" y="142" type="line"/>
      <point x="244" y="142" type="line"/>
      <point x="345" y="603" type="line" smooth="yes"/>
      <point x="369" y="712"/>
      <point x="386" y="730"/>
      <point x="464" y="730" type="curve"/>
      <point x="474" y="770" type="line"/>
      <point x="178" y="770" type="line"/>
      <point x="168" y="730" type="line"/>
      <point x="241" y="730"/>
      <point x="261" y="720"/>
      <point x="261" y="681" type="curve" smooth="yes"/>
      <point x="261" y="665"/>
      <point x="257" y="639"/>
      <point x="249" y="604" type="curve" smooth="yes"/>
      <point x="110" y="-10" type="line"/>
      <point x="194" y="-10" type="line"/>
      <point x="645" y="539" type="line" smooth="yes"/>
      <point x="766" y="687"/>
      <point x="825" y="730"/>
      <point x="888" y="730" type="curve"/>
      <point x="898" y="770" type="line"/>
      <point x="639" y="770" type="line"/>
      <point x="629" y="730" type="line"/>
      <point x="675" y="730"/>
      <point x="698" y="725"/>
      <point x="698" y="705" type="curve" smooth="yes"/>
      <point x="698" y="681"/>
      <point x="660" y="634"/>
      <point x="586" y="546" type="curve" smooth="yes"/>
    </contour>
  </outline>
</glyph>
<glyph name="W" format="1">
  <advance width="1064"/>
  <unicode hex="0057"/>
  <outline>
    <contour>
      <point x="683" y="830" type="move" name="topcap"/>
    </contour>
    <contour>
      <point x="588" y="152" type="line"/>
      <point x="584" y="152" type="line"/>
      <point x="685" y="603" type="line" smooth="yes"/>
      <point x="709" y="712"/>
      <point x="726" y="730"/>
      <point x="804" y="730" type="curve"/>
      <point x="814" y="770" type="line"/>
      <point x="528" y="770" type="line"/>
      <point x="518" y="730" type="line"/>
      <point x="583" y="730"/>
      <point x="601" y="720"/>
      <point x="601" y="681" type="curve" smooth="yes"/>
      <point x="601" y="665"/>
      <point x="597" y="639"/>
      <point x="589" y="604" type="curve" smooth="yes"/>
      <point x="585" y="587" type="line"/>
      <point x="246" y="152" type="line"/>
      <point x="242" y="152" type="line"/>
      <point x="343" y="603" type="line" smooth="yes"/>
      <point x="367" y="711"/>
      <point x="386" y="730"/>
      <point x="442" y="730" type="curve"/>
      <point x="452" y="770" type="line"/>
      <point x="176" y="770" type="line"/>
      <point x="166" y="730" type="line"/>
      <point x="239" y="730"/>
      <point x="259" y="720"/>
      <point x="259" y="681" type="curve" smooth="yes"/>
      <point x="259" y="665"/>
      <point x="255" y="639"/>
      <point x="247" y="604" type="curve" smooth="yes"/>
      <point x="108" y="-10" type="line"/>
      <point x="192" y="-10" type="line"/>
      <point x="558" y="467" type="line"/>
      <point x="450" y="-10" type="line"/>
      <point x="534" y="-10" type="line"/>
      <point x="955" y="539" type="line" smooth="yes"/>
      <point x="1071" y="691"/>
      <point x="1135" y="730"/>
      <point x="1198" y="730" type="curve"/>
      <point x="1208" y="770" type="line"/>
      <point x="949" y="770" type="line"/>
      <point x="939" y="730" type="line"/>
      <point x="981" y="730"/>
      <point x="1002" y="726"/>
      <point x="1002" y="707" type="curve" smooth="yes"/>
      <point x="1002" y="684"/>
      <point x="967" y="637"/>
      <point x="896" y="546" type="curve" smooth="yes"/>
    </contour>
  </outline>
</glyph>
<glyph name="asciicircum" format="1">
  <advance width="481"/>
  <unicode hex="005E"/>
  <outline>
    <contour>
      <point x="225" y="409" type="line"/>
      <point x="60" y="230" type="line"/>
      <point x="104" y="230" type="line"/>
      <point x="254" y="348" type="line"/>
      <point x="342" y="230" type="line"/>
      <point x="387" y="230" type="line"/>
      <point x="315" y="409" type="line"/>
    </contour>
  </outline>
</glyph>
<glyph name="underscore" format="1">
  <advance width="731"/>
  <unicode hex="005F"/>
  <outline>
    <contour>
      <point x="525" y="-143" type="line"/>
      <point x="548" y="-75" type="line"/>
      <point x="-22" y="-75" type="line"/>
      <point x="-45" y="-143" type="line"/>
    </contour>
  </outline>
</glyph>
<glyph name="grave" format="1">
  <advance width="275"/>
  <unicode hex="0060"/>
  <outline>
    <contour>
      <point x="155" y="651" type="move" name="_top"/>
    </contour>
    <contour>
      <point x="234" y="651" type="line"/>
      <point x="136" y="770" type="line" smooth="yes"/>
      <point x="117" y="793"/>
      <point x="99" y="803"/>
      <point x="78" y="803" type="curve" smooth="yes"/>
      <point x="54" y="803"/>
      <point x="29" y="787"/>
      <point x="29" y="760" type="curve" smooth="yes"/>
      <point x="29" y="743"/>
      <point x="44" y="729"/>
      <point x="68" y="716" type="curve" smooth="yes"/>
      <point x="187" y="651" type="line"/>
    </contour>
  </outline>
</glyph>
<glyph name="b" format="1">
  <advance width="534"/>
  <unicode hex="0062"/>
  <outline>
    <contour>
      <point x="331" y="829" type="line"/>
      <point x="139" y="820" type="line"/>
      <point x="131" y="790" type="line"/>
      <point x="183" y="790"/>
      <point x="207" y="779"/>
      <point x="207" y="755" type="curve" smooth="yes"/>
      <point x="207" y="743"/>
      <point x="199" y="715"/>
      <point x="192" y="691" type="curve" smooth="yes"/>
      <point x="71" y="301" type="line" smooth="yes"/>
      <point x="43" y="213"/>
      <point x="28" y="149"/>
      <point x="28" y="114" type="curve" smooth="yes"/>
      <point x="28" y="41"/>
      <point x="82" y="-10"/>
      <point x="158" y="-10" type="curve" smooth="yes"/>
      <point x="320" y="-10"/>
      <point x="499" y="207"/>
      <point x="499" y="397" type="curve" smooth="yes"/>
      <point x="499" y="484"/>
      <point x="453" y="539"/>
      <point x="372" y="539" type="curve" smooth="yes"/>
      <point x="307" y="539"/>
      <point x="246" y="503"/>
      <point x="207" y="442" type="curve"/>
      <point x="204" y="444" type="line"/>
    </contour>
    <contour>
      <point x="174" y="41" type="curve" smooth="yes"/>
      <point x="140" y="41"/>
      <point x="123" y="69"/>
      <point x="123" y="123" type="curve" smooth="yes"/>
      <point x="123" y="270"/>
      <point x="255" y="486"/>
      <point x="345" y="486" type="curve" smooth="yes"/>
      <point x="376" y="486"/>
      <point x="400" y="451"/>
      <point x="400" y="405" type="curve" smooth="yes"/>
      <point x="400" y="256"/>
      <point x="267" y="41"/>
    </contour>
  </outline>
</glyph>
<glyph name="f" format="1">
  <advance width="334"/>
  <unicode hex="0066"/>
  <outline>
    <contour>
      <point x="246" y="450" type="line"/>
      <point x="344" y="450" type="line"/>
      <point x="358" y="496" type="line"/>
      <point x="257" y="496" type="line"/>
      <point x="291" y="664"/>
      <point x="344" y="785"/>
      <point x="397" y="785" type="curve" smooth="yes"/>
      <point x="460" y="785"/>
      <point x="416" y="689"/>
      <point x="493" y="689" type="curve" smooth="yes"/>
      <point x="523" y="689"/>
      <point x="541" y="714"/>
      <point x="541" y="744" type="curve" smooth="yes"/>
      <point x="541" y="793"/>
      <point x="484" y="830"/>
      <point x="406" y="830" type="curve" smooth="yes"/>
      <point x="302" y="830"/>
      <point x="224" y="735"/>
      <point x="165" y="496" type="curve"/>
      <point x="70" y="496" type="line"/>
      <point x="57" y="450" type="line"/>
      <point x="153" y="450" type="line"/>
      <point x="8" y="-113" type="line" smooth="yes"/>
      <point x="-5" y="-165"/>
      <point x="-32" y="-200"/>
      <point x="-63" y="-200" type="curve" smooth="yes"/>
      <point x="-115" y="-200"/>
      <point x="-89" y="-130"/>
      <point x="-145" y="-130" type="curve" smooth="yes"/>
      <point x="-176" y="-130"/>
      <point x="-194" y="-151"/>
      <point x="-194" y="-184" type="curve" smooth="yes"/>
      <point x="-194" y="-227"/>
      <point x="-153" y="-260"/>
      <point x="-98" y="-260" type="curve" smooth="yes"/>
      <point x="16" y="-260"/>
      <point x="84" y="-198"/>
      <point x="152" y="73" type="curve" smooth="yes"/>
    </contour>
  </outline>
</glyph>
<glyph name="k" format="1">
  <advance width="513"/>
  <unicode hex="006B"/>
  <outline>
    <contour>
      <point x="162" y="0" type="move" name="bottom"/>
    </contour>
    <contour>
      <point x="357" y="80" type="curve" smooth="yes"/>
      <point x="339" y="80"/>
      <point x="325" y="97"/>
      <point x="311" y="135" type="curve" smooth="yes"/>
      <point x="260" y="267" type="line"/>
      <point x="286" y="279" type="line" smooth="yes"/>
      <point x="396" y="329"/>
      <point x="462" y="396"/>
      <point x="462" y="458" type="curve" smooth="yes"/>
      <point x="462" y="509"/>
      <point x="423" y="541"/>
      <point x="361" y="541" type="curve" smooth="yes"/>
      <point x="302" y="541"/>
      <point x="252" y="508"/>
      <point x="214" y="444" type="curve"/>
      <point x="210" y="445" type="line"/>
      <point x="314" y="830" type="line"/>
      <point x="115" y="820" type="line"/>
      <point x="106" y="790" type="line"/>
      <point x="179" y="790"/>
      <point x="199" y="782"/>
      <point x="199" y="754" type="curve" smooth="yes"/>
      <point x="199" y="746"/>
      <point x="197" y="736"/>
      <point x="192" y="717" type="curve" smooth="yes"/>
      <point x="-1" y="0" type="line"/>
      <point x="90" y="0" type="line"/>
      <point x="153" y="218" type="line"/>
      <point x="175" y="228" type="line"/>
      <point x="242" y="68" type="line" smooth="yes"/>
      <point x="267" y="9"/>
      <point x="284" y="-10"/>
      <point x="316" y="-10" type="curve" smooth="yes"/>
      <point x="367" y="-10"/>
      <point x="417" y="41"/>
      <point x="465" y="141" type="curve"/>
      <point x="439" y="155" type="line"/>
      <point x="404" y="105"/>
      <point x="377" y="80"/>
    </contour>
    <contour>
      <point x="162" y="268" type="curve"/>
      <point x="192" y="378"/>
      <point x="266" y="473"/>
      <point x="321" y="473" type="curve" smooth="yes"/>
      <point x="347" y="473"/>
      <point x="362" y="458"/>
      <point x="362" y="432" type="curve" smooth="yes"/>
      <point x="362" y="378"/>
      <point x="278" y="308"/>
    </contour>
  </outline>
</glyph>
<glyph name="l" format="1">
  <advance width="313"/>
  <unicode hex="006C"/>
  <outline>
    <contour>
      <point x="267" y="830" type="move" name="topcap"/>
    </contour>
    <contour>
      <point x="55" y="0" type="move" name="bottom"/>
    </contour>
    <contour>
      <point x="50" y="202" type="line" smooth="yes"/>
      <point x="30" y="124"/>
      <point x="23" y="82"/>
      <point x="23" y="55" type="curve" smooth="yes"/>
      <point x="23" y="9"/>
      <point x="45" y="-10"/>
      <point x="91" y="-10" type="curve" smooth="yes"/>
      <point x="153" y="-10"/>
      <point x="245" y="73"/>
      <point x="286" y="164" type="curve"/>
      <point x="256" y="181" type="line"/>
      <point x="240" y="151"/>
      <point x="182" y="67"/>
      <point x="139" y="67" type="curve" smooth="yes"/>
      <point x="124" y="67"/>
      <point x="118" y="78"/>
      <point x="118" y="90" type="curve" smooth="yes"/>
      <point x="118" y="109"/>
      <point x="124" y="136"/>
      <point x="134" y="172" type="curve" smooth="yes"/>
      <point x="313" y="829" type="line"/>
      <point x="130" y="820" type="line"/>
      <point x="122" y="790" type="line"/>
      <point x="174" y="790"/>
      <point x="198" y="779"/>
      <point x="198" y="755" type="curve" smooth="yes"/>
      <point x="198" y="743"/>
      <point x="189" y="715"/>
      <point x="183" y="691" type="curve" smooth="yes"/>
    </contour>
  </outline>
</glyph>
<glyph name="m" format="1">
  <advance width="870"/>
  <unicode hex="006D"/>
  <outline>
    <contour>
      <point x="663" y="333" type="curve" smooth="yes"/>
      <point x="594" y="135"/>
      <point x="584" y="102"/>
      <point x="584" y="69" type="curve" smooth="yes"/>
      <point x="584" y="21"/>
      <point x="605" y="-10"/>
      <point x="638" y="-10" type="curve" smooth="yes"/>
      <point x="694" y="-10"/>
      <point x="799" y="82"/>
      <point x="844" y="171" type="curve"/>
      <point x="818" y="185" type="line"/>
      <point x="754" y="105"/>
      <point x="715" y="68"/>
      <point x="695" y="68" type="curve" smooth="yes"/>
      <point x="688" y="68"/>
      <point x="685" y="73"/>
      <point x="685" y="87" type="curve" smooth="yes"/>
      <point x="685" y="110"/>
      <point x="689" y="125"/>
      <point x="735" y="262" type="curve" smooth="yes"/>
      <point x="771" y="369"/>
      <point x="785" y="415"/>
      <point x="785" y="453" type="curve" smooth="yes"/>
      <point x="785" y="513"/>
      <point x="759" y="540"/>
      <point x="707" y="540" type="curve" smooth="yes"/>
      <point x="637" y="540"/>
      <point x="580" y="490"/>
      <point x="505" y="363" type="curve"/>
      <point x="503" y="366" type="line"/>
      <point x="516" y="413"/>
      <point x="520" y="432"/>
      <point x="520" y="451" type="curve" smooth="yes"/>
      <point x="520" y="506"/>
      <point x="489" y="540"/>
      <point x="437" y="540" type="curve" smooth="yes"/>
      <point x="368" y="540"/>
      <point x="301" y="481"/>
      <point x="240" y="367" type="curve"/>
      <point x="237" y="370" type="line"/>
      <point x="249" y="401"/>
      <point x="254" y="430"/>
      <point x="254" y="462" type="curve" smooth="yes"/>
      <point x="254" y="518"/>
      <point x="238" y="540"/>
      <point x="195" y="540" type="curve" smooth="yes"/>
      <point x="121" y="540"/>
      <point x="64" y="475"/>
      <point x="17" y="339" type="curve"/>
      <point x="47" y="324" type="line"/>
      <point x="76" y="409"/>
      <point x="128" y="485"/>
      <point x="157" y="485" type="curve" smooth="yes"/>
      <point x="168" y="485"/>
      <point x="174" y="475"/>
      <point x="174" y="457" type="curve" smooth="yes"/>
      <point x="174" y="431"/>
      <point x="161" y="385"/>
      <point x="111" y="229" type="curve" smooth="yes"/>
      <point x="37" y="0" type="line"/>
      <point x="125" y="0" type="line"/>
      <point x="209" y="227" type="line" smooth="yes"/>
      <point x="256" y="354"/>
      <point x="361" y="488"/>
      <point x="414" y="488" type="curve" smooth="yes"/>
      <point x="430" y="488"/>
      <point x="439" y="476"/>
      <point x="439" y="455" type="curve" smooth="yes"/>
      <point x="439" y="427"/>
      <point x="423" y="371"/>
      <point x="367" y="201" type="curve" smooth="yes"/>
      <point x="301" y="0" type="line"/>
      <point x="395" y="0" type="line"/>
      <point x="477" y="234"/>
      <point x="496" y="281"/>
      <point x="537" y="346" type="curve" smooth="yes"/>
      <point x="594" y="437"/>
      <point x="645" y="488"/>
      <point x="681" y="488" type="curve" smooth="yes"/>
      <point x="695" y="488"/>
      <point x="701" y="480"/>
      <point x="701" y="459" type="curve" smooth="yes"/>
      <point x="701" y="442"/>
      <point x="698" y="432"/>
    </contour>
  </outline>
</glyph>
<glyph name="n" format="1">
  <advance width="627"/>
  <unicode hex="006E"/>
  <outline>
    <contour>
      <point x="383" y="651" type="move" name="top"/>
    </contour>
    <contour>
      <point x="391" y="0" type="move" name="bottom"/>
    </contour>
    <contour>
      <point x="425" y="488" type="curve" smooth="yes"/>
      <point x="443" y="488"/>
      <point x="452" y="476"/>
      <point x="452" y="451" type="curve" smooth="yes"/>
      <point x="452" y="427"/>
      <point x="445" y="402"/>
      <point x="421" y="333" type="curve" smooth="yes"/>
      <point x="350" y="132"/>
      <point x="342" y="107"/>
      <point x="342" y="70" type="curve" smooth="yes"/>
      <point x="342" y="22"/>
      <point x="363" y="-10"/>
      <point x="396" y="-10" type="curve" smooth="yes"/>
      <point x="449" y="-10"/>
      <point x="549" y="72"/>
      <point x="592" y="151" type="curve"/>
      <point x="566" y="165" type="line"/>
      <point x="505" y="97"/>
      <point x="471" y="68"/>
      <point x="452" y="68" type="curve" smooth="yes"/>
      <point x="445" y="68"/>
      <point x="442" y="73"/>
      <point x="442" y="83" type="curve" smooth="yes"/>
      <point x="442" y="108"/>
      <point x="464" y="172"/>
      <point x="495" y="262" type="curve" smooth="yes"/>
      <point x="536" y="381"/>
      <point x="548" y="424"/>
      <point x="548" y="459" type="curve" smooth="yes"/>
      <point x="548" y="511"/>
      <point x="516" y="540"/>
      <point x="458" y="540" type="curve" smooth="yes"/>
      <point x="376" y="540"/>
      <point x="308" y="486"/>
      <point x="240" y="367" type="curve"/>
      <point x="237" y="370" type="line"/>
      <point x="249" y="398"/>
      <point x="254" y="427"/>
      <point x="254" y="461" type="curve" smooth="yes"/>
      <point x="254" y="518"/>
      <point x="238" y="540"/>
      <point x="195" y="540" type="curve" smooth="yes"/>
      <point x="121" y="540"/>
      <point x="64" y="475"/>
      <point x="17" y="339" type="curve"/>
      <point x="47" y="324" type="line"/>
      <point x="73" y="405"/>
      <point x="127" y="485"/>
      <point x="157" y="485" type="curve" smooth="yes"/>
      <point x="168" y="485"/>
      <point x="174" y="475"/>
      <point x="174" y="458" type="curve" smooth="yes"/>
      <point x="174" y="432"/>
      <point x="158" y="375"/>
      <point x="111" y="229" type="curve" smooth="yes"/>
      <point x="37" y="0" type="line"/>
      <point x="125" y="0" type="line"/>
      <point x="199" y="200" type="line" smooth="yes"/>
      <point x="253" y="345"/>
      <point x="362" y="488"/>
    </contour>
  </outline>
</glyph>
<glyph name="q" format="1">
  <advance width="535"/>
  <unicode hex="0071"/>
  <outline>
    <contour>
      <point x="230" y="-164" type="line" smooth="yes"/>
      <point x="220" y="-199"/>
      <point x="197" y="-210"/>
      <point x="142" y="-210" type="curve"/>
      <point x="136" y="-250" type="line"/>
      <point x="394" y="-250" type="line"/>
      <point x="400" y="-210" type="line"/>
      <point x="341" y="-209"/>
      <point x="323" y="-198"/>
      <point x="323" y="-174" type="curve" smooth="yes"/>
      <point x="323" y="-166"/>
      <point x="325" y="-157"/>
      <point x="330" y="-139" type="curve" smooth="yes"/>
      <point x="514" y="540" type="line"/>
      <point x="438" y="540" type="line"/>
      <point x="414" y="469" type="line"/>
      <point x="385" y="519"/>
      <point x="354" y="540"/>
      <point x="308" y="540" type="curve" smooth="yes"/>
      <point x="168" y="540"/>
      <point x="15" y="334"/>
      <point x="15" y="153" type="curve" smooth="yes"/>
      <point x="15" y="50"/>
      <point x="63" y="-10"/>
      <point x="146" y="-10" type="curve" smooth="yes"/>
      <point x="209" y="-10"/>
      <point x="264" y="24"/>
      <point x="300" y="87" type="curve"/>
      <point x="303" y="85" type="line"/>
    </contour>
    <contour>
      <point x="313" y="488" type="curve" smooth="yes"/>
      <point x="350" y="488"/>
      <point x="371" y="452"/>
      <point x="371" y="379" type="curve" smooth="yes"/>
      <point x="371" y="232"/>
      <point x="266" y="50"/>
      <point x="177" y="50" type="curve" smooth="yes"/>
      <point x="138" y="50"/>
      <point x="119" y="83"/>
      <point x="119" y="146" type="curve" smooth="yes"/>
      <point x="119" y="293"/>
      <point x="227" y="488"/>
    </contour>
  </outline>
</glyph>
<glyph name="s" format="1">
  <advance width="381"/>
  <unicode hex="0073"/>
  <outline>
    <contour>
      <point x="282" y="651" type="move" name="top"/>
    </contour>
    <contour>
      <point x="108" y="0" type="move" name="bottom"/>
    </contour>
    <contour>
      <point x="77" y="387" type="curve" smooth="yes"/>
      <point x="77" y="266"/>
      <point x="205" y="223"/>
      <point x="205" y="115" type="curve" smooth="yes"/>
      <point x="205" y="65"/>
      <point x="175" y="34"/>
      <point x="127" y="34" type="curve" smooth="yes"/>
      <point x="97" y="34"/>
      <point x="90" y="44"/>
      <point x="86" y="87" type="curve" smooth="yes"/>
      <point x="82" y="126"/>
      <point x="65" y="146"/>
      <point x="37" y="146" type="curve" smooth="yes"/>
      <point x="7" y="146"/>
      <point x="-13" y="122"/>
      <point x="-13" y="84" type="curve" smooth="yes"/>
      <point x="-13" y="28"/>
      <point x="39" y="-10"/>
      <point x="118" y="-10" type="curve" smooth="yes"/>
      <point x="209" y="-10"/>
      <point x="294" y="65"/>
      <point x="294" y="155" type="curve" smooth="yes"/>
      <point x="294" y="289"/>
      <point x="168" y="342"/>
      <point x="168" y="431" type="curve" smooth="yes"/>
      <point x="168" y="468"/>
      <point x="191" y="497"/>
      <point x="220" y="497" type="curve" smooth="yes"/>
      <point x="270" y="497"/>
      <point x="251" y="409"/>
      <point x="312" y="409" type="curve" smooth="yes"/>
      <point x="338" y="409"/>
      <point x="355" y="426"/>
      <point x="355" y="454" type="curve" smooth="yes"/>
      <point x="355" y="504"/>
      <point x="307" y="540"/>
      <point x="243" y="540" type="curve" smooth="yes"/>
      <point x="147" y="540"/>
      <point x="77" y="475"/>
    </contour>
  </outline>
</glyph>
<glyph name="x" format="1">
  <advance width="578"/>
  <unicode hex="0078"/>
  <outline>
    <contour>
      <point x="328" y="294" type="line" smooth="yes"/>
      <point x="353" y="404"/>
      <point x="402" y="482"/>
      <point x="445" y="482" type="curve" smooth="yes"/>
      <point x="486" y="482"/>
      <point x="461" y="407"/>
      <point x="518" y="407" type="curve" smooth="yes"/>
      <point x="548" y="407"/>
      <point x="568" y="429"/>
      <point x="568" y="461" type="curve" smooth="yes"/>
      <point x="568" y="505"/>
      <point x="531" y="540"/>
      <point x="485" y="540" type="curve" smooth="yes"/>
      <point x="435" y="540"/>
      <point x="375" y="498"/>
      <point x="336" y="436" type="curve"/>
      <point x="336" y="495"/>
      <point x="298" y="540"/>
      <point x="248" y="540" type="curve" smooth="yes"/>
      <point x="185" y="540"/>
      <point x="80" y="456"/>
      <point x="44" y="377" type="curve"/>
      <point x="74" y="359" type="line"/>
      <point x="117" y="423"/>
      <point x="189" y="481"/>
      <point x="226" y="481" type="curve" smooth="yes"/>
      <point x="247" y="481"/>
      <point x="259" y="462"/>
      <point x="259" y="427" type="curve" smooth="yes"/>
      <point x="259" y="403"/>
      <point x="253" y="371"/>
      <point x="241" y="330" type="curve" smooth="yes"/>
      <point x="213" y="233" type="line" smooth="yes"/>
      <point x="180" y="121"/>
      <point x="131" y="48"/>
      <point x="88" y="48" type="curve" smooth="yes"/>
      <point x="42" y="48"/>
      <point x="74" y="131"/>
      <point x="8" y="131" type="curve" smooth="yes"/>
      <point x="-28" y="131"/>
      <point x="-51" y="106"/>
      <point x="-51" y="69" type="curve" smooth="yes"/>
      <point x="-51" y="23"/>
      <point x="-15" y="-10"/>
      <point x="37" y="-10" type="curve" smooth="yes"/>
      <point x="102" y="-10"/>
      <point x="174" y="39"/>
      <point x="214" y="110" type="curve"/>
      <point x="217" y="109" type="line"/>
      <point x="225" y="35"/>
      <point x="267" y="-10"/>
      <point x="328" y="-10" type="curve" smooth="yes"/>
      <point x="400" y="-10"/>
      <point x="485" y="53"/>
      <point x="533" y="143" type="curve"/>
      <point x="503" y="161" type="line"/>
      <point x="441" y="80"/>
      <point x="395" y="44"/>
      <point x="351" y="44" type="curve" smooth="yes"/>
      <point x="315" y="44"/>
      <point x="298" y="68"/>
      <point x="298" y="121" type="curve" smooth="yes"/>
      <point x="298" y="150"/>
      <point x="303" y="186"/>
      <point x="314" y="233" type="curve" smooth="yes"/>
    </contour>
  </outline>
</glyph>
<glyph name="y" format="1">
  <advance width="515"/>
  <unicode hex="0079"/>
  <outline>
    <contour>
      <point x="347" y="651" type="move" name="top"/>
    </contour>
    <contour>
      <point x="161" y="292" type="line"/>
      <point x="135" y="401"/>
      <point x="118" y="437"/>
      <point x="94" y="437" type="curve" smooth="yes"/>
      <point x="69" y="437"/>
      <point x="49" y="400"/>
      <point x="28" y="318" type="curve"/>
      <point x="-9" y="328" type="line"/>
      <point x="19" y="452"/>
      <point x="80" y="540"/>
      <point x="139" y="540" type="curve" smooth="yes"/>
      <point x="164" y="540"/>
      <point x="180" y="524"/>
      <point x="199" y="474" type="curve" smooth="yes"/>
      <point x="215" y="432"/>
      <point x="235" y="359"/>
      <point x="254" y="269" type="curve" smooth="yes"/>
      <point x="288" y="108" type="line"/>
      <point x="292" y="108" type="line"/>
      <point x="342" y="171"/>
      <point x="402" y="278"/>
      <point x="402" y="359" type="curve" smooth="yes"/>
      <point x="402" y="386"/>
      <point x="395" y="447"/>
      <point x="395" y="470" type="curve" smooth="yes"/>
      <point x="395" y="518"/>
      <point x="424" y="540"/>
      <point x="451" y="540" type="curve" smooth="yes"/>
      <point x="485" y="540"/>
      <point x="501" y="506"/>
      <point x="501" y="467" type="curve" smooth="yes"/>
      <point x="501" y="358"/>
      <point x="374" y="106"/>
      <point x="241" y="-66" type="curve" smooth="yes"/>
      <point x="140" y="-197"/>
      <point x="54" y="-260"/>
      <point x="-20" y="-260" type="curve" smooth="yes"/>
      <point x="-75" y="-260"/>
      <point x="-111" y="-225"/>
      <point x="-111" y="-181" type="curve" smooth="yes"/>
      <point x="-111" y="-148"/>
      <point x="-90" y="-125"/>
      <point x="-60" y="-125" type="curve" smooth="yes"/>
      <point x="-6" y="-125"/>
      <point x="-20" y="-200"/>
      <point x="18" y="-200" type="curve" smooth="yes"/>
      <point x="68" y="-200"/>
      <point x="185" y="-75"/>
      <point x="215" y="11" type="curve"/>
    </contour>
  </outline>
</glyph>
<glyph name="z" format="1">
  <advance width="519"/>
  <unicode hex="007A"/>
  <outline>
    <contour>
      <point x="327" y="651" type="move" name="top"/>
    </contour>
    <contour>
      <point x="150" y="0" type="move" name="bottom"/>
    </contour>
    <contour>
      <point x="160" y="155" type="line"/>
      <point x="162" y="152" type="line"/>
      <point x="221" y="152"/>
      <point x="288" y="85"/>
      <point x="350" y="85" type="curve" smooth="yes"/>
      <point x="388" y="85"/>
      <point x="415" y="106"/>
      <point x="439" y="169" type="curve"/>
      <point x="473" y="156" type="line"/>
      <point x="446" y="58"/>
      <point x="374" y="-10"/>
      <point x="296" y="-10" type="curve" smooth="yes"/>
      <point x="204" y="-10"/>
      <point x="166" y="81"/>
      <point x="107" y="81" type="curve" smooth="yes"/>
      <point x="51" y="81"/>
      <point x="82" y="0"/>
      <point x="24" y="0" type="curve" smooth="yes"/>
      <point x="3" y="0"/>
      <point x="-9" y="11"/>
      <point x="-9" y="30" type="curve" smooth="yes"/>
      <point x="-9" y="55"/>
      <point x="12" y="78"/>
      <point x="57" y="122" type="curve" smooth="yes"/>
      <point x="333" y="389" type="line"/>
      <point x="331" y="392" type="line"/>
      <point x="278" y="392"/>
      <point x="208" y="476"/>
      <point x="151" y="476" type="curve" smooth="yes"/>
      <point x="129" y="476"/>
      <point x="115" y="464"/>
      <point x="115" y="445" type="curve" smooth="yes"/>
      <point x="115" y="408"/>
      <point x="166" y="416"/>
      <point x="166" y="368" type="curve" smooth="yes"/>
      <point x="166" y="339"/>
      <point x="148" y="322"/>
      <point x="117" y="322" type="curve" smooth="yes"/>
      <point x="75" y="322"/>
      <point x="50" y="351"/>
      <point x="50" y="399" type="curve" smooth="yes"/>
      <point x="50" y="478"/>
      <point x="119" y="540"/>
      <point x="208" y="540" type="curve" smooth="yes"/>
      <point x="307" y="540"/>
      <point x="333" y="462"/>
      <point x="382" y="462" type="curve" smooth="yes"/>
      <point x="428" y="462"/>
      <point x="417" y="530"/>
      <point x="461" y="530" type="curve" smooth="yes"/>
      <point x="479" y="530"/>
      <point x="490" y="518"/>
      <point x="490" y="499" type="curve" smooth="yes"/>
      <point x="490" y="477"/>
      <point x="484" y="466"/>
      <point x="424" y="408" type="curve" smooth="yes"/>
    </contour>
  </outline>
</glyph>
<glyph name="bar" format="1">
  <advance width="350"/>
  <unicode hex="007C"/>
  <outline>
    <contour>
      <point x="127" y="820" type="line"/>
      <point x="127" y="-250" type="line"/>
      <point x="207" y="-250" type="line"/>
      <point x="207" y="820" type="line"/>
    </contour>
  </outline>
</glyph>
<glyph name="braceright" format="1">
  <advance width="336"/>
  <unicode hex="007D"/>
  <outline>
    <contour>
      <point x="41" y="0" type="line" smooth="yes"/>
      <point x="22" y="-72"/>
      <point x="-8" y="-109"/>
      <point x="-79" y="-128" type="curve"/>
      <point x="-85" y="-150" type="line"/>
      <point x="48" y="-150"/>
      <point x="99" y="-117"/>
      <point x="132" y="4" type="curve" smooth="yes"/>
      <point x="185" y="200" type="line" smooth="yes"/>
      <point x="201" y="260"/>
      <point x="239" y="324"/>
      <point x="309" y="330" type="curve"/>
      <point x="316" y="355" type="line"/>
      <point x="268" y="365"/>
      <point x="250" y="386"/>
      <point x="250" y="422" type="curve" smooth="yes"/>
      <point x="250" y="439"/>
      <point x="254" y="459"/>
      <point x="261" y="484" type="curve" smooth="yes"/>
      <point x="309" y="659" type="line" smooth="yes"/>
      <point x="318" y="694"/>
      <point x="324" y="722"/>
      <point x="324" y="746" type="curve" smooth="yes"/>
      <point x="324" y="807"/>
      <point x="286" y="830"/>
      <point x="183" y="830" type="curve"/>
      <point x="177" y="807" type="line"/>
      <point x="216" y="796"/>
      <point x="233" y="773"/>
      <point x="233" y="737" type="curve" smooth="yes"/>
      <point x="233" y="720"/>
      <point x="230" y="702"/>
      <point x="224" y="680" type="curve" smooth="yes"/>
      <point x="176" y="501" type="line" smooth="yes"/>
      <point x="168" y="472"/>
      <point x="163" y="446"/>
      <point x="163" y="424" type="curve" smooth="yes"/>
      <point x="163" y="384"/>
      <point x="180" y="356"/>
      <point x="232" y="345" type="curve"/>
      <point x="231" y="340" type="line"/>
      <point x="146" y="326"/>
      <point x="115" y="278"/>
      <point x="94" y="198" type="curve" smooth="yes"/>
    </contour>
  </outline>
</glyph>
<glyph name="section" format="1">
  <advance width="621"/>
  <unicode hex="00A7"/>
  <outline>
    <contour>
      <point x="121" y="-47" type="curve" smooth="yes"/>
      <point x="121" y="5"/>
      <point x="103" y="28"/>
      <point x="64" y="28" type="curve" smooth="yes"/>
      <point x="24" y="28"/>
      <point x="-1" y="1"/>
      <point x="-1" y="-42" type="curve" smooth="yes"/>
      <point x="-1" y="-129"/>
      <point x="84" y="-173"/>
      <point x="181" y="-173" type="curve" smooth="yes"/>
      <point x="317" y="-173"/>
      <point x="502" y="-93"/>
      <point x="502" y="132" type="curve" smooth="yes"/>
      <point x="502" y="307"/>
      <point x="381" y="539"/>
      <point x="381" y="693" type="curve" smooth="yes"/>
      <point x="381" y="761"/>
      <point x="412" y="790"/>
      <point x="445" y="790" type="curve" smooth="yes"/>
      <point x="491" y="790"/>
      <point x="505" y="764"/>
      <point x="505" y="732" type="curve" smooth="yes"/>
      <point x="505" y="719"/>
      <point x="502" y="704"/>
      <point x="502" y="693" type="curve" smooth="yes"/>
      <point x="502" y="640"/>
      <point x="531" y="628"/>
      <point x="557" y="628" type="curve" smooth="yes"/>
      <point x="590" y="628"/>
      <point x="613" y="656"/>
      <point x="613" y="698" type="curve" smooth="yes"/>
      <point x="613" y="781"/>
      <point x="530" y="830"/>
      <point x="442" y="830" type="curve" smooth="yes"/>
      <point x="302" y="830"/>
      <point x="133" y="750"/>
      <point x="133" y="529" type="curve" smooth="yes"/>
      <point x="133" y="383"/>
      <point x="237" y="138"/>
      <point x="237" y="2" type="curve" smooth="yes"/>
      <point x="237" y="-82"/>
      <point x="215" y="-127"/>
      <point x="169" y="-127" type="curve" smooth="yes"/>
      <point x="140" y="-127"/>
      <point x="121" y="-104"/>
    </contour>
    <contour>
      <point x="401" y="89" type="curve" smooth="yes"/>
      <point x="401" y="-20"/>
      <point x="360" y="-98"/>
      <point x="263" y="-122" type="curve"/>
      <point x="316" y="-84"/>
      <point x="330" y="-38"/>
      <point x="330" y="36" type="curve" smooth="yes"/>
      <point x="330" y="195"/>
      <point x="233" y="453"/>
      <point x="233" y="589" type="curve" smooth="yes"/>
      <point x="233" y="677"/>
      <point x="266" y="734"/>
      <point x="344" y="771" type="curve"/>
      <point x="301" y="725"/>
      <point x="299" y="689"/>
      <point x="299" y="621" type="curve" smooth="yes"/>
      <point x="299" y="482"/>
      <point x="401" y="232"/>
    </contour>
  </outline>
</glyph>
<glyph name="dieresis" format="1">
  <advance width="323"/>
  <unicode hex="00A8"/>
  <outline>
    <contour>
      <point x="160" y="651" type="move" name="_top"/>
    </contour>
    <contour>
      <point x="19" y="709" type="curve" smooth="yes"/>
      <point x="17" y="703"/>
      <point x="17" y="698"/>
      <point x="17" y="693" type="curve" smooth="yes"/>
      <point x="17" y="668"/>
      <point x="34" y="651"/>
      <point x="61" y="651" type="curve" smooth="yes"/>
      <point x="98" y="651"/>
      <point x="137" y="684"/>
      <point x="137" y="724" type="curve" smooth="yes"/>
      <point x="137" y="749"/>
      <point x="120" y="767"/>
      <point x="92" y="767" type="curve" smooth="yes"/>
      <point x="59" y="767"/>
      <point x="27" y="742"/>
    </contour>
    <contour>
      <point x="186" y="709" type="curve" smooth="yes"/>
      <point x="184" y="703"/>
      <point x="184" y="698"/>
      <point x="184" y="693" type="curve" smooth="yes"/>
      <point x="184" y="668"/>
      <point x="201" y="651"/>
      <point x="228" y="651" type="curve" smooth="yes"/>
      <point x="265" y="651"/>
      <point x="304" y="684"/>
      <point x="304" y="724" type="curve" smooth="yes"/>
      <point x="304" y="749"/>
      <point x="287" y="767"/>
      <point x="259" y="767" type="curve" smooth="yes"/>
      <point x="226" y="767"/>
      <point x="194" y="742"/>
    </contour>
  </outline>
</glyph>
<glyph name="copyright" format="1">
  <advance width="918"/>
  <unicode hex="00A9"/>
  <outline>
    <contour>
      <point x="865" y="386" type="curve" smooth="yes"/>
      <point x="865" y="605"/>
      <point x="691" y="780"/>
      <point x="475" y="780" type="curve" smooth="yes"/>
      <point x="262" y="780"/>
      <point x="91" y="602"/>
      <point x="91" y="385" type="curve" smooth="yes"/>
      <point x="91" y="168"/>
      <point x="263" y="-10"/>
      <point x="476" y="-10" type="curve" smooth="yes"/>
      <point x="691" y="-10"/>
      <point x="865" y="166"/>
    </contour>
    <contour>
      <point x="817" y="386" type="curve" smooth="yes"/>
      <point x="817" y="194"/>
      <point x="664" y="38"/>
      <point x="476" y="38" type="curve" smooth="yes"/>
      <point x="288" y="38"/>
      <point x="139" y="194"/>
      <point x="139" y="385" type="curve" smooth="yes"/>
      <point x="139" y="575"/>
      <point x="287" y="732"/>
      <point x="475" y="732" type="curve" smooth="yes"/>
      <point x="664" y="732"/>
      <point x="817" y="579"/>
    </contour>
    <contour>
      <point x="618" y="305" type="line"/>
      <point x="599" y="235"/>
      <point x="556" y="198"/>
      <point x="491" y="198" type="curve" smooth="yes"/>
      <point x="398" y="198"/>
      <point x="347" y="262"/>
      <point x="347" y="379" type="curve" smooth="yes"/>
      <point x="347" y="498"/>
      <point x="399" y="569"/>
      <point x="489" y="569" type="curve" smooth="yes"/>
      <point x="554" y="569"/>
      <point x="604" y="532"/>
      <point x="620" y="472" type="curve"/>
      <point x="646" y="472" type="line"/>
      <point x="641" y="603" type="line"/>
      <point x="620" y="603" type="line"/>
      <point x="610" y="568" type="line"/>
      <point x="564" y="597"/>
      <point x="528" y="609"/>
      <point x="484" y="609" type="curve" smooth="yes"/>
      <point x="351" y="609"/>
      <point x="260" y="514"/>
      <point x="260" y="375" type="curve" smooth="yes"/>
      <point x="260" y="243"/>
      <point x="345" y="157"/>
      <point x="478" y="157" type="curve" smooth="yes"/>
      <point x="577" y="157"/>
      <point x="632" y="217"/>
      <point x="651" y="305" type="curve"/>
    </contour>
  </outline>
</glyph>
<glyph name="guillemotleft" format="1">
  <advance width="478"/>
  <unicode hex="00AB"/>
  <outline>
    <contour>
      <point x="157" y="104" type="line"/>
      <point x="181" y="124" type="line"/>
      <point x="120" y="262" type="line"/>
      <point x="256" y="400" type="line"/>
      <point x="242" y="421" type="line"/>
      <point x="29" y="262" type="line"/>
    </contour>
    <contour>
      <point x="328" y="104" type="line"/>
      <point x="352" y="124" type="line"/>
      <point x="291" y="262" type="line"/>
      <point x="427" y="400" type="line"/>
      <point x="413" y="421" type="line"/>
      <point x="200" y="262" type="line"/>
    </contour>
  </outline>
</glyph>
<glyph name="uni00AD" format="1">
  <advance width="488"/>
  <unicode hex="00AD"/>
  <outline>
    <contour>
      <point x="390" y="248" type="line"/>
      <point x="390" y="331" type="line"/>
      <point x="81" y="331" type="line"/>
      <point x="81" y="248" type="line"/>
    </contour>
  </outline>
</glyph>
<glyph name="macron" format="1">
  <advance width="310"/>
  <unicode hex="00AF"/>
  <outline>
    <contour>
      <point x="155" y="651" type="move" name="_top"/>
    </contour>
    <contour>
      <point x="283" y="702" type="line"/>
      <point x="296" y="752" type="line"/>
      <point x="26" y="752" type="line"/>
      <point x="13" y="702" type="line"/>
    </contour>
  </outline>
</glyph>
<glyph name="onesuperior" format="1">
  <advance width="273"/>
  <unicode hex="00B9"/>
  <outline>
    <contour>
      <point x="287" y="780" type="line"/>
      <point x="267" y="780" type="line"/>
      <point x="239" y="754"/>
      <point x="209" y="731"/>
      <point x="165" y="731" type="curve"/>
      <point x="158" y="709" type="line"/>
      <point x="188" y="709"/>
      <point x="207" y="716"/>
      <point x="216" y="716" type="curve" smooth="yes"/>
      <point x="220" y="716"/>
      <point x="222" y="714"/>
      <point x="222" y="710" type="curve" smooth="yes"/>
      <point x="222" y="709"/>
      <point x="222" y="706"/>
      <point x="221" y="704" type="curve" smooth="yes"/>
      <point x="181" y="545" type="line" smooth="yes"/>
      <point x="170" y="502"/>
      <point x="153" y="489"/>
      <point x="115" y="489" type="curve"/>
      <point x="110" y="468" type="line"/>
      <point x="263" y="468" type="line"/>
      <point x="268" y="489" type="line"/>
      <point x="236" y="489"/>
      <point x="226" y="503"/>
      <point x="226" y="524" type="curve" smooth="yes"/>
      <point x="226" y="539"/>
      <point x="231" y="560"/>
      <point x="236" y="580" type="curve" smooth="yes"/>
    </contour>
  </outline>
</glyph>
<glyph name="ordmasculine" format="1">
  <advance width="338"/>
  <unicode hex="00BA"/>
  <outline>
    <contour>
      <point x="224" y="507" type="curve" smooth="yes"/>
      <point x="301" y="507"/>
      <point x="378" y="602"/>
      <point x="378" y="685" type="curve" smooth="yes"/>
      <point x="378" y="743"/>
      <point x="340" y="780"/>
      <point x="286" y="780" type="curve" smooth="yes"/>
      <point x="208" y="780"/>
      <point x="133" y="693"/>
      <point x="133" y="607" type="curve" smooth="yes"/>
      <point x="133" y="545"/>
      <point x="175" y="507"/>
    </contour>
    <contour>
      <point x="232" y="537" type="curve" smooth="yes"/>
      <point x="214" y="537"/>
      <point x="200" y="551"/>
      <point x="200" y="587" type="curve" smooth="yes"/>
      <point x="200" y="658"/>
      <point x="240" y="752"/>
      <point x="281" y="752" type="curve" smooth="yes"/>
      <point x="302" y="752"/>
      <point x="315" y="741"/>
      <point x="315" y="705" type="curve" smooth="yes"/>
      <point x="315" y="635"/>
      <point x="273" y="537"/>
    </contour>
  </outline>
</glyph>
<glyph name="guillemotright" format="1">
  <advance width="478"/>
  <unicode hex="00BB"/>
  <outline>
    <contour>
      <point x="421" y="262" type="line"/>
      <point x="294" y="421" type="line"/>
      <point x="268" y="400" type="line"/>
      <point x="330" y="262" type="line"/>
      <point x="195" y="124" type="line"/>
      <point x="209" y="104" type="line"/>
    </contour>
    <contour>
      <point x="250" y="262" type="line"/>
      <point x="123" y="421" type="line"/>
      <point x="97" y="400" type="line"/>
      <point x="159" y="262" type="line"/>
      <point x="24" y="124" type="line"/>
      <point x="38" y="104" type="line"/>
    </contour>
  </outline>
</glyph>
<glyph name="questiondown" format="1">
  <advance width="470"/>
  <unicode hex="00BF"/>
  <outline>
    <contour>
      <point x="312" y="781" type="curve" smooth="yes"/>
      <point x="276" y="781"/>
      <point x="248" y="753"/>
      <point x="248" y="719" type="curve" smooth="yes"/>
      <point x="248" y="684"/>
      <point x="276" y="655"/>
      <point x="311" y="655" type="curve" smooth="yes"/>
      <point x="346" y="655"/>
      <point x="374" y="683"/>
      <point x="374" y="719" type="curve" smooth="yes"/>
      <point x="374" y="754"/>
      <point x="347" y="781"/>
    </contour>
    <contour>
      <point x="365" y="481" type="curve" smooth="yes"/>
      <point x="365" y="545"/>
      <point x="333" y="580"/>
      <point x="275" y="580" type="curve" smooth="yes"/>
      <point x="227" y="580"/>
      <point x="190" y="555"/>
      <point x="164" y="502" type="curve"/>
      <point x="191" y="486" type="line"/>
      <point x="210" y="521"/>
      <point x="233" y="537"/>
      <point x="265" y="537" type="curve" smooth="yes"/>
      <point x="295" y="537"/>
      <point x="311" y="523"/>
      <point x="311" y="497" type="curve" smooth="yes"/>
      <point x="311" y="387"/>
      <point x="21" y="352"/>
      <point x="21" y="150" type="curve" smooth="yes"/>
      <point x="21" y="54"/>
      <point x="87" y="-10"/>
      <point x="188" y="-10" type="curve" smooth="yes"/>
      <point x="290" y="-10"/>
      <point x="373" y="56"/>
      <point x="373" y="137" type="curve" smooth="yes"/>
      <point x="373" y="194"/>
      <point x="331" y="238"/>
      <point x="277" y="238" type="curve" smooth="yes"/>
      <point x="243" y="238"/>
      <point x="222" y="220"/>
      <point x="222" y="189" type="curve" smooth="yes"/>
      <point x="222" y="131"/>
      <point x="292" y="165"/>
      <point x="292" y="111" type="curve" smooth="yes"/>
      <point x="292" y="69"/>
      <point x="249" y="38"/>
      <point x="193" y="38" type="curve" smooth="yes"/>
      <point x="130" y="38"/>
      <point x="85" y="78"/>
      <point x="85" y="133" type="curve" smooth="yes"/>
      <point x="85" y="270"/>
      <point x="365" y="291"/>
    </contour>
  </outline>
</glyph>
<glyph name="germandbls" format="1">
  <advance width="586"/>
  <unicode hex="00DF"/>
  <outline>
    <contour>
      <point x="-24" y="-113" type="line" smooth="yes"/>
      <point x="-38" y="-168"/>
      <point x="-65" y="-200"/>
      <point x="-97" y="-200" type="curve" smooth="yes"/>
      <point x="-145" y="-200"/>
      <point x="-122" y="-130"/>
      <point x="-177" y="-130" type="curve" smooth="yes"/>
      <point x="-207" y="-130"/>
      <point x="-226" y="-151"/>
      <point x="-226" y="-183" type="curve" smooth="yes"/>
      <point x="-226" y="-231"/>
      <point x="-186" y="-260"/>
      <point x="-120" y="-260" type="curve" smooth="yes"/>
      <point x="-6" y="-260"/>
      <point x="62" y="-166"/>
      <point x="120" y="73" type="curve" smooth="yes"/>
      <point x="245" y="592" type="line" smooth="yes"/>
      <point x="278" y="728"/>
      <point x="308" y="780"/>
      <point x="367" y="780" type="curve" smooth="yes"/>
      <point x="435" y="780"/>
      <point x="467" y="754"/>
      <point x="467" y="691" type="curve" smooth="yes"/>
      <point x="467" y="673"/>
      <point x="462" y="655"/>
      <point x="459" y="633" type="curve" smooth="yes"/>
      <point x="430" y="535"/>
      <point x="373" y="487"/>
      <point x="278" y="487" type="curve"/>
      <point x="265" y="436" type="line"/>
      <point x="373" y="436"/>
      <point x="421" y="387"/>
      <point x="421" y="278" type="curve" smooth="yes"/>
      <point x="421" y="148"/>
      <point x="357" y="36"/>
      <point x="283" y="36" type="curve" smooth="yes"/>
      <point x="225" y="36"/>
      <point x="269" y="118"/>
      <point x="220" y="118" type="curve" smooth="yes"/>
      <point x="191" y="118"/>
      <point x="166" y="88"/>
      <point x="166" y="53" type="curve" smooth="yes"/>
      <point x="166" y="14"/>
      <point x="200" y="-10"/>
      <point x="256" y="-10" type="curve" smooth="yes"/>
      <point x="396" y="-10"/>
      <point x="526" y="133"/>
      <point x="526" y="288" type="curve" smooth="yes"/>
      <point x="526" y="395"/>
      <point x="467" y="462"/>
      <point x="371" y="462" type="curve"/>
      <point x="373" y="467" type="line"/>
      <point x="486" y="488"/>
      <point x="567" y="578"/>
      <point x="567" y="683" type="curve" smooth="yes"/>
      <point x="567" y="774"/>
      <point x="503" y="830"/>
      <point x="399" y="830" type="curve" smooth="yes"/>
      <point x="278" y="830"/>
      <point x="188" y="740"/>
      <point x="150" y="586" type="curve" smooth="yes"/>
    </contour>
  </outline>
</glyph>
<glyph name="ae" format="1">
  <advance width="756"/>
  <unicode hex="00E6"/>
  <outline>
    <contour>
      <point x="505" y="651" type="move" name="top"/>
    </contour>
    <contour>
      <point x="639" y="154" type="line"/>
      <point x="594" y="86"/>
      <point x="538" y="45"/>
      <point x="489" y="45" type="curve" smooth="yes"/>
      <point x="439" y="45"/>
      <point x="412" y="83"/>
      <point x="412" y="154" type="curve" smooth="yes"/>
      <point x="412" y="172"/>
      <point x="413" y="190"/>
      <point x="416" y="209" type="curve"/>
      <point x="594" y="249"/>
      <point x="743" y="360"/>
      <point x="743" y="453" type="curve" smooth="yes"/>
      <point x="743" y="504"/>
      <point x="698" y="540"/>
      <point x="634" y="540" type="curve" smooth="yes"/>
      <point x="586" y="540"/>
      <point x="534" y="522"/>
      <point x="498" y="474" type="curve"/>
      <point x="495" y="476" type="line"/>
      <point x="525" y="550" type="line"/>
      <point x="442" y="550" type="line"/>
      <point x="414" y="474" type="line"/>
      <point x="397" y="520"/>
      <point x="370" y="540"/>
      <point x="326" y="540" type="curve" smooth="yes"/>
      <point x="182" y="540"/>
      <point x="10" y="319"/>
      <point x="10" y="135" type="curve" smooth="yes"/>
      <point x="10" y="45"/>
      <point x="51" y="-10"/>
      <point x="117" y="-10" type="curve" smooth="yes"/>
      <point x="184" y="-10"/>
      <point x="269" y="48"/>
      <point x="315" y="124" type="curve"/>
      <point x="324" y="39"/>
      <point x="375" y="-10"/>
      <point x="457" y="-10" type="curve" smooth="yes"/>
      <point x="540" y="-10"/>
      <point x="614" y="39"/>
      <point x="671" y="133" type="curve"/>
    </contour>
    <contour>
      <point x="329" y="488" type="curve" smooth="yes"/>
      <point x="359" y="488"/>
      <point x="373" y="468"/>
      <point x="373" y="427" type="curve" smooth="yes"/>
      <point x="373" y="271"/>
      <point x="255" y="61"/>
      <point x="160" y="61" type="curve" smooth="yes"/>
      <point x="126" y="61"/>
      <point x="105" y="92"/>
      <point x="105" y="144" type="curve" smooth="yes"/>
      <point x="105" y="284"/>
      <point x="238" y="488"/>
    </contour>
    <contour>
      <point x="614" y="493" type="curve" smooth="yes"/>
      <point x="637" y="493"/>
      <point x="649" y="479"/>
      <point x="649" y="451" type="curve" smooth="yes"/>
      <point x="649" y="371"/>
      <point x="554" y="289"/>
      <point x="426" y="254" type="curve"/>
      <point x="460" y="376"/>
      <point x="544" y="493"/>
    </contour>
  </outline>
</glyph>
<glyph name="Dcroat" format="1">
  <advance width="839"/>
  <unicode hex="0110"/>
  <outline>
    <contour>
      <point x="391" y="366" type="line"/>
      <point x="404" y="416" type="line"/>
      <point x="94" y="416" type="line"/>
      <point x="81" y="366" type="line"/>
    </contour>
    <component base="D" xOffset="3"/>
  </outline>
</glyph>
<glyph name="hcircumflex" format="1">
  <advance width="574"/>
  <unicode hex="0125"/>
  <outline>
    <contour>
      <point x="437" y="780" type="line"/>
      <point x="303" y="651" type="line"/>
      <point x="348" y="651" type="line"/>
      <point x="465" y="719" type="line"/>
      <point x="546" y="651" type="line"/>
      <point x="591" y="651" type="line"/>
      <point x="527" y="780" type="line"/>
    </contour>
    <component base="h"/>
  </outline>
</glyph>
<glyph name="Lslash" format="1">
  <advance width="704"/>
  <unicode hex="0141"/>
  <outline>
    <contour>
      <point x="394" y="463" type="line"/>
      <point x="411" y="528" type="line"/>
      <point x="100" y="363" type="line"/>
      <point x="83" y="298" type="line"/>
    </contour>
    <component base="L" xOffset="2"/>
  </outline>
</glyph>
<glyph name="lslash" format="1">
  <advance width="328"/>
  <unicode hex="0142"/>
  <outline>
    <contour>
      <point x="322" y="508" type="line"/>
      <point x="339" y="573" type="line"/>
      <point x="45" y="416" type="line"/>
      <point x="28" y="351" type="line"/>
    </contour>
    <component base="l" xOffset="15"/>
  </outline>
</glyph>
<glyph name="Eng" format="1">
  <advance width="842"/>
  <unicode hex="014A"/>
  <outline>
    <contour>
      <point x="410" y="-207" type="curve" smooth="yes"/>
      <point x="379" y="-207"/>
      <point x="358" y="-189"/>
      <point x="358" y="-164" type="curve" smooth="yes"/>
      <point x="358" y="-131"/>
      <point x="400" y="-131"/>
      <point x="400" y="-87" type="curve" smooth="yes"/>
      <point x="400" y="-56"/>
      <point x="378" y="-34"/>
      <point x="347" y="-34" type="curve" smooth="yes"/>
      <point x="298" y="-34"/>
      <point x="260" y="-82"/>
      <point x="260" y="-143" type="curve" smooth="yes"/>
      <point x="260" y="-215"/>
      <point x="314" y="-260"/>
      <point x="400" y="-260" type="curve" smooth="yes"/>
      <point x="503" y="-260"/>
      <point x="571" y="-196"/>
      <point x="605" y="-64" type="curve" smooth="yes"/>
      <point x="703" y="316" type="line"/>
      <point x="654" y="350" type="line"/>
      <point x="555" y="-28" type="line" smooth="yes"/>
      <point x="525" y="-141"/>
      <point x="471" y="-207"/>
    </contour>
    <component base="N"/>
  </outline>
</glyph>
<glyph name="eng" format="1">
  <advance width="590"/>
  <unicode hex="014B"/>
  <outline>
    <contour>
      <point x="299" y="-113" type="curve" smooth="yes"/>
      <point x="284" y="-167"/>
      <point x="258" y="-200"/>
      <point x="230" y="-200" type="curve" smooth="yes"/>
      <point x="188" y="-200"/>
      <point x="202" y="-125"/>
      <point x="146" y="-125" type="curve" smooth="yes"/>
      <point x="116" y="-125"/>
      <point x="97" y="-147"/>
      <point x="97" y="-181" type="curve" smooth="yes"/>
      <point x="97" y="-227"/>
      <point x="137" y="-260"/>
      <point x="191" y="-260" type="curve" smooth="yes"/>
      <point x="279" y="-260"/>
      <point x="376" y="-162"/>
      <point x="414" y="-34" type="curve" smooth="yes"/>
      <point x="531" y="359"/>
      <point x="548" y="428"/>
      <point x="548" y="461" type="curve" smooth="yes"/>
      <point x="548" y="512"/>
      <point x="515" y="540"/>
      <point x="457" y="540" type="curve" smooth="yes"/>
      <point x="376" y="540"/>
      <point x="307" y="485"/>
      <point x="240" y="367" type="curve"/>
      <point x="237" y="370" type="line"/>
      <point x="249" y="397"/>
      <point x="254" y="425"/>
      <point x="254" y="460" type="curve" smooth="yes"/>
      <point x="254" y="518"/>
      <point x="238" y="540"/>
      <point x="195" y="540" type="curve" smooth="yes"/>
      <point x="121" y="540"/>
      <point x="64" y="475"/>
      <point x="17" y="339" type="curve"/>
      <point x="47" y="324" type="line"/>
      <point x="73" y="405"/>
      <point x="127" y="485"/>
      <point x="157" y="485" type="curve" smooth="yes"/>
      <point x="168" y="485"/>
      <point x="174" y="475"/>
      <point x="174" y="459" type="curve" smooth="yes"/>
      <point x="174" y="432"/>
      <point x="159" y="377"/>
      <point x="111" y="229" type="curve" smooth="yes"/>
      <point x="37" y="0" type="line"/>
      <point x="125" y="0" type="line"/>
      <point x="199" y="200" type="line" smooth="yes"/>
      <point x="252" y="344"/>
      <point x="362" y="488"/>
      <point x="424" y="488" type="curve" smooth="yes"/>
      <point x="441" y="488"/>
      <point x="452" y="476"/>
      <point x="452" y="457" type="curve" smooth="yes"/>
      <point x="452" y="440"/>
      <point x="443" y="406"/>
    </contour>
  </outline>
</glyph>
<glyph name="Tbar" format="1">
  <advance width="797"/>
  <unicode hex="0166"/>
  <outline>
    <contour>
      <point x="744" y="399" type="line"/>
      <point x="757" y="449" type="line"/>
      <point x="123" y="449" type="line"/>
      <point x="110" y="399" type="line"/>
    </contour>
    <component base="T" xOffset="4"/>
  </outline>
</glyph>
<glyph name="Aringacute" format="1">
  <advance width="763"/>
  <unicode hex="01FA"/>
  <outline>
    <contour>
      <point x="517" y="850" type="line"/>
      <point x="577" y="850" type="line"/>
      <point x="623" y="858" type="line"/>
      <point x="630" y="841"/>
      <point x="646" y="830"/>
      <point x="669" y="830" type="curve" smooth="yes"/>
      <point x="706" y="830"/>
      <point x="741" y="857"/>
      <point x="752" y="891" type="curve"/>
      <point x="797" y="900"/>
      <point x="823" y="915"/>
      <point x="823" y="935" type="curve" smooth="yes"/>
      <point x="823" y="948"/>
      <point x="812" y="955"/>
      <point x="793" y="955" type="curve" smooth="yes"/>
      <point x="777" y="955"/>
      <point x="763" y="950"/>
      <point x="745" y="942" type="curve"/>
      <point x="736" y="953"/>
      <point x="722" y="960"/>
      <point x="705" y="960" type="curve" smooth="yes"/>
      <point x="667" y="960"/>
      <point x="631" y="930"/>
      <point x="622" y="894" type="curve"/>
    </contour>
    <contour>
      <point x="696" y="928" type="curve" smooth="yes"/>
      <point x="712" y="928"/>
      <point x="722" y="918"/>
      <point x="722" y="903" type="curve" smooth="yes"/>
      <point x="722" y="881"/>
      <point x="700" y="861"/>
      <point x="677" y="861" type="curve" smooth="yes"/>
      <point x="662" y="861"/>
      <point x="652" y="870"/>
      <point x="652" y="885" type="curve" smooth="yes"/>
      <point x="652" y="907"/>
      <point x="673" y="928"/>
    </contour>
    <component base="A"/>
  </outline>
</glyph>
<glyph name="Oslashacute" format="1">
  <advance width="820"/>
  <unicode hex="01FE"/>
  <outline>
    <contour>
      <point x="47" y="-62" type="line"/>
      <point x="115" y="-62" type="line"/>
      <point x="818" y="828" type="line"/>
      <point x="749" y="828" type="line"/>
    </contour>
    <component base="O"/>
    <component base="acute.cap" xOffset="427"/>
  </outline>
</glyph>
<glyph name="dotlessj" format="1">
  <advance width="299"/>
  <unicode hex="0237"/>
  <outline>
    <contour>
      <point x="134" y="651" type="move" name="top"/>
    </contour>
    <contour>
      <point x="122" y="331" type="line" smooth="yes"/>
      <point x="135" y="383"/>
      <point x="143" y="415"/>
      <point x="143" y="434" type="curve" smooth="yes"/>
      <point x="143" y="447"/>
      <point x="139" y="454"/>
      <point x="128" y="454" type="curve" smooth="yes"/>
      <point x="99" y="454"/>
      <point x="53" y="390"/>
      <point x="42" y="369" type="curve"/>
      <point x="13" y="387" type="line"/>
      <point x="44" y="447"/>
      <point x="137" y="540"/>
      <point x="206" y="540" type="curve" smooth="yes"/>
      <point x="241" y="540"/>
      <point x="256" y="522"/>
      <point x="256" y="484" type="curve" smooth="yes"/>
      <point x="256" y="440"/>
      <point x="236" y="368"/>
      <point x="208" y="267" type="curve" smooth="yes"/>
      <point x="125" y="-34" type="line" smooth="yes"/>
      <point x="93" y="-148"/>
      <point x="0" y="-260"/>
      <point x="-95" y="-260" type="curve" smooth="yes"/>
      <point x="-150" y="-260"/>
      <point x="-191" y="-227"/>
      <point x="-191" y="-184" type="curve" smooth="yes"/>
      <point x="-191" y="-148"/>
      <point x="-173" y="-125"/>
      <point x="-142" y="-125" type="curve" smooth="yes"/>
      <point x="-87" y="-125"/>
      <point x="-98" y="-200"/>
      <point x="-60" y="-200" type="curve" smooth="yes"/>
      <point x="-28" y="-200"/>
      <point x="-2" y="-165"/>
      <point x="11" y="-113" type="curve" smooth="yes"/>
    </contour>
  </outline>
</glyph>
<glyph name="circumflex" format="1">
  <advance width="368"/>
  <unicode hex="02C6"/>
  <outline>
    <contour>
      <point x="184" y="651" type="move" name="_top"/>
    </contour>
    <contour>
      <point x="156" y="780" type="line"/>
      <point x="2" y="651" type="line"/>
      <point x="47" y="651" type="line"/>
      <point x="184" y="719" type="line"/>
      <point x="285" y="651" type="line"/>
      <point x="330" y="651" type="line"/>
      <point x="246" y="780" type="line"/>
    </contour>
  </outline>
</glyph>
<glyph name="caron" format="1">
  <advance width="368"/>
  <unicode hex="02C7"/>
  <outline>
    <contour>
      <point x="184" y="651" type="move" name="_top"/>
    </contour>
    <contour>
      <point x="211" y="651" type="line"/>
      <point x="365" y="780" type="line"/>
      <point x="320" y="780" type="line"/>
      <point x="183" y="712" type="line"/>
      <point x="82" y="780" type="line"/>
      <point x="37" y="780" type="line"/>
      <point x="121" y="651" type="line"/>
    </contour>
  </outline>
</glyph>
<glyph name="breve" format="1">
  <advance width="316"/>
  <unicode hex="02D8"/>
  <outline>
    <contour>
      <point x="158" y="651" type="move" name="_top"/>
    </contour>
    <contour>
      <point x="276" y="776" type="line"/>
      <point x="255" y="739"/>
      <point x="208" y="715"/>
      <point x="158" y="715" type="curve" smooth="yes"/>
      <point x="109" y="715"/>
      <point x="75" y="739"/>
      <point x="73" y="776" type="curve"/>
      <point x="37" y="776" type="line"/>
      <point x="34" y="765"/>
      <point x="33" y="754"/>
      <point x="33" y="744" type="curve" smooth="yes"/>
      <point x="33" y="686"/>
      <point x="74" y="646"/>
      <point x="140" y="646" type="curve" smooth="yes"/>
      <point x="215" y="646"/>
      <point x="288" y="700"/>
      <point x="313" y="776" type="curve"/>
    </contour>
  </outline>
</glyph>
<glyph name="ring" format="1">
  <advance width="214"/>
  <unicode hex="02DA"/>
  <outline>
    <contour>
      <point x="106" y="651" type="move" name="_top"/>
    </contour>
    <contour>
      <point x="16" y="718" type="curve" smooth="yes"/>
      <point x="16" y="681"/>
      <point x="41" y="656"/>
      <point x="82" y="656" type="curve" smooth="yes"/>
      <point x="141" y="656"/>
      <point x="197" y="707"/>
      <point x="197" y="768" type="curve" smooth="yes"/>
      <point x="197" y="805"/>
      <point x="171" y="830"/>
      <point x="129" y="830" type="curve" smooth="yes"/>
      <point x="68" y="830"/>
      <point x="16" y="774"/>
    </contour>
    <contour>
      <point x="119" y="788" type="curve" smooth="yes"/>
      <point x="140" y="788"/>
      <point x="154" y="775"/>
      <point x="154" y="756" type="curve" smooth="yes"/>
      <point x="154" y="723"/>
      <point x="124" y="696"/>
      <point x="95" y="696" type="curve" smooth="yes"/>
      <point x="72" y="696"/>
      <point x="58" y="710"/>
      <point x="58" y="730" type="curve" smooth="yes"/>
      <point x="58" y="763"/>
      <point x="90" y="788"/>
    </contour>
  </outline>
</glyph>
<glyph name="uni03BC" format="1">
  <advance width="640"/>
  <unicode hex="03BC"/>
  <outline>
    <contour>
      <point x="123" y="268" type="curve" smooth="yes"/>
      <point x="155" y="367"/>
      <point x="164" y="403"/>
      <point x="164" y="428" type="curve" smooth="yes"/>
      <point x="164" y="442"/>
      <point x="160" y="449"/>
      <point x="153" y="449" type="curve" smooth="yes"/>
      <point x="137" y="449"/>
      <point x="105" y="420"/>
      <point x="60" y="365" type="curve"/>
      <point x="34" y="379" type="line"/>
      <point x="77" y="464"/>
      <point x="168" y="540"/>
      <point x="227" y="540" type="curve" smooth="yes"/>
      <point x="258" y="540"/>
      <point x="277" y="519"/>
      <point x="277" y="485" type="curve" smooth="yes"/>
      <point x="277" y="454"/>
      <point x="272" y="437"/>
      <point x="211" y="259" type="curve" smooth="yes"/>
      <point x="189" y="194"/>
      <point x="176" y="137"/>
      <point x="176" y="104" type="curve" smooth="yes"/>
      <point x="176" y="75"/>
      <point x="185" y="62"/>
      <point x="203" y="62" type="curve" smooth="yes"/>
      <point x="254" y="62"/>
      <point x="344" y="186"/>
      <point x="397" y="330" type="curve" smooth="yes"/>
      <point x="471" y="530" type="line"/>
      <point x="564" y="530" type="line"/>
      <point x="490" y="301" type="line" smooth="yes"/>
      <point x="446" y="165"/>
      <point x="432" y="115"/>
      <point x="432" y="91" type="curve" smooth="yes"/>
      <point x="432" y="74"/>
      <point x="438" y="65"/>
      <point x="449" y="65" type="curve" smooth="yes"/>
      <point x="477" y="65"/>
      <point x="528" y="121"/>
      <point x="554" y="181" type="curve"/>
      <point x="584" y="166" type="line"/>
      <point x="544" y="67"/>
      <point x="463" y="-10"/>
      <point x="399" y="-10" type="curve" smooth="yes"/>
      <point x="362" y="-10"/>
      <point x="347" y="16"/>
      <point x="347" y="81" type="curve" smooth="yes"/>
      <point x="347" y="101"/>
      <point x="349" y="119"/>
      <point x="352" y="138" type="curve"/>
      <point x="349" y="141" type="line"/>
      <point x="306" y="44"/>
      <point x="252" y="-10"/>
      <point x="198" y="-10" type="curve" smooth="yes"/>
      <point x="167" y="-10"/>
      <point x="146" y="2"/>
      <point x="135" y="26" type="curve"/>
      <point x="132" y="25" type="line"/>
      <point x="98" y="-181" type="line" smooth="yes"/>
      <point x="89" y="-235"/>
      <point x="69" y="-260"/>
      <point x="31" y="-260" type="curve" smooth="yes"/>
      <point x="0" y="-260"/>
      <point x="-14" y="-245"/>
      <point x="-14" y="-210" type="curve" smooth="yes"/>
      <point x="-14" y="-198"/>
      <point x="-12" y="-185"/>
      <point x="-8" y="-169" type="curve" smooth="yes"/>
      <point x="8" y="-104"/>
      <point x="75" y="119"/>
    </contour>
  </outline>
</glyph>
<glyph name="endash" format="1">
  <advance width="726"/>
  <unicode hex="2013"/>
  <outline>
    <contour>
      <point x="630" y="248" type="line"/>
      <point x="653" y="331" type="line"/>
      <point x="83" y="331" type="line"/>
      <point x="60" y="248" type="line"/>
    </contour>
  </outline>
</glyph>
<glyph name="emdash" format="1">
  <advance width="1114"/>
  <unicode hex="2014"/>
  <outline>
    <contour>
      <point x="1018" y="248" type="line"/>
      <point x="1041" y="331" type="line"/>
      <point x="83" y="331" type="line"/>
      <point x="60" y="248" type="line"/>
    </contour>
  </outline>
</glyph>
<glyph name="quoteleft" format="1">
  <advance width="251"/>
  <unicode hex="2018"/>
  <outline>
    <contour>
      <point x="309" y="830" type="line"/>
      <point x="186" y="754"/>
      <point x="136" y="698"/>
      <point x="136" y="612" type="curve" smooth="yes"/>
      <point x="136" y="577"/>
      <point x="153" y="559"/>
      <point x="188" y="559" type="curve" smooth="yes"/>
      <point x="233" y="559"/>
      <point x="275" y="592"/>
      <point x="275" y="636" type="curve" smooth="yes"/>
      <point x="275" y="659"/>
      <point x="260" y="675"/>
      <point x="235" y="675" type="curve" smooth="yes"/>
      <point x="224" y="675"/>
      <point x="212" y="672"/>
      <point x="203" y="667" type="curve"/>
      <point x="217" y="718"/>
      <point x="251" y="757"/>
      <point x="325" y="803" type="curve"/>
    </contour>
  </outline>
</glyph>
<glyph name="quotedblleft" format="1">
  <advance width="443"/>
  <unicode hex="201C"/>
  <outline>
    <contour>
      <point x="501" y="830" type="line"/>
      <point x="378" y="754"/>
      <point x="328" y="698"/>
      <point x="328" y="612" type="curve" smooth="yes"/>
      <point x="328" y="577"/>
      <point x="345" y="559"/>
      <point x="380" y="559" type="curve" smooth="yes"/>
      <point x="425" y="559"/>
      <point x="467" y="592"/>
      <point x="467" y="636" type="curve" smooth="yes"/>
      <point x="467" y="659"/>
      <point x="452" y="675"/>
      <point x="427" y="675" type="curve" smooth="yes"/>
      <point x="416" y="675"/>
      <point x="404" y="672"/>
      <point x="395" y="667" type="curve"/>
      <point x="409" y="718"/>
      <point x="443" y="757"/>
      <point x="517" y="803" type="curve"/>
    </contour>
    <contour>
      <point x="309" y="830" type="line"/>
      <point x="186" y="754"/>
      <point x="136" y="698"/>
      <point x="136" y="612" type="curve" smooth="yes"/>
      <point x="136" y="577"/>
      <point x="153" y="559"/>
      <point x="188" y="559" type="curve" smooth="yes"/>
      <point x="233" y="559"/>
      <point x="275" y="592"/>
      <point x="275" y="636" type="curve" smooth="yes"/>
      <point x="275" y="659"/>
      <point x="260" y="675"/>
      <point x="235" y="675" type="curve" smooth="yes"/>
      <point x="224" y="675"/>
      <point x="212" y="672"/>
      <point x="203" y="667" type="curve"/>
      <point x="217" y="718"/>
      <point x="251" y="757"/>
      <point x="325" y="803" type="curve"/>
    </contour>
  </outline>
</glyph>
<glyph name="quotedblright" format="1">
  <advance width="441"/>
  <unicode hex="201D"/>
  <outline>
    <contour>
      <point x="145" y="559" type="line"/>
      <point x="268" y="634"/>
      <point x="318" y="690"/>
      <point x="318" y="777" type="curve" smooth="yes"/>
      <point x="318" y="811"/>
      <point x="300" y="830"/>
      <point x="266" y="830" type="curve" smooth="yes"/>
      <point x="221" y="830"/>
      <point x="179" y="797"/>
      <point x="179" y="753" type="curve" smooth="yes"/>
      <point x="179" y="729"/>
      <point x="193" y="714"/>
      <point x="219" y="714" type="curve" smooth="yes"/>
      <point x="230" y="714"/>
      <point x="242" y="717"/>
      <point x="251" y="722" type="curve"/>
      <point x="237" y="671"/>
      <point x="203" y="632"/>
      <point x="129" y="586" type="curve"/>
    </contour>
    <contour>
      <point x="337" y="559" type="line"/>
      <point x="460" y="634"/>
      <point x="510" y="690"/>
      <point x="510" y="777" type="curve" smooth="yes"/>
      <point x="510" y="811"/>
      <point x="492" y="830"/>
      <point x="458" y="830" type="curve" smooth="yes"/>
      <point x="413" y="830"/>
      <point x="371" y="797"/>
      <point x="371" y="753" type="curve" smooth="yes"/>
      <point x="371" y="729"/>
      <point x="385" y="714"/>
      <point x="411" y="714" type="curve" smooth="yes"/>
      <point x="422" y="714"/>
      <point x="434" y="717"/>
      <point x="443" y="722" type="curve"/>
      <point x="429" y="671"/>
      <point x="395" y="632"/>
      <point x="321" y="586" type="curve"/>
    </contour>
  </outline>
</glyph>
<glyph name="quotedblbase" format="1">
  <advance width="452"/>
  <unicode hex="201E"/>
  <outline>
    <contour>
      <point x="-42" y="-165" type="line"/>
      <point x="81" y="-90"/>
      <point x="131" y="-34"/>
      <point x="131" y="53" type="curve" smooth="yes"/>
      <point x="131" y="87"/>
      <point x="113" y="106"/>
      <point x="79" y="106" type="curve" smooth="yes"/>
      <point x="34" y="106"/>
      <point x="-8" y="73"/>
      <point x="-8" y="29" type="curve" smooth="yes"/>
      <point x="-8" y="5"/>
      <point x="6" y="-10"/>
      <point x="32" y="-10" type="curve" smooth="yes"/>
      <point x="43" y="-10"/>
      <point x="55" y="-7"/>
      <point x="64" y="-2" type="curve"/>
      <point x="50" y="-53"/>
      <point x="16" y="-92"/>
      <point x="-58" y="-138" type="curve"/>
    </contour>
    <contour>
      <point x="150" y="-165" type="line"/>
      <point x="273" y="-90"/>
      <point x="323" y="-34"/>
      <point x="323" y="53" type="curve" smooth="yes"/>
      <point x="323" y="87"/>
      <point x="305" y="106"/>
      <point x="271" y="106" type="curve" smooth="yes"/>
      <point x="226" y="106"/>
      <point x="184" y="73"/>
      <point x="184" y="29" type="curve" smooth="yes"/>
      <point x="184" y="5"/>
      <point x="198" y="-10"/>
      <point x="224" y="-10" type="curve" smooth="yes"/>
      <point x="235" y="-10"/>
      <point x="247" y="-7"/>
      <point x="256" y="-2" type="curve"/>
      <point x="242" y="-53"/>
      <point x="208" y="-92"/>
      <point x="134" y="-138" type="curve"/>
    </contour>
  </outline>
</glyph>
<glyph name="daggerdbl" format="1">
  <advance width="595"/>
  <unicode hex="2021"/>
  <outline>
    <contour>
      <point x="363" y="261" type="curve"/>
      <point x="352" y="290"/>
      <point x="345" y="318"/>
      <point x="345" y="352" type="curve" smooth="yes"/>
      <point x="345" y="384"/>
      <point x="351" y="421"/>
      <point x="364" y="469" type="curve"/>
      <point x="450" y="461"/>
      <point x="470" y="429"/>
      <point x="516" y="429" type="curve" smooth="yes"/>
      <point x="556" y="429"/>
      <point x="596" y="466"/>
      <point x="596" y="508" type="curve" smooth="yes"/>
      <point x="596" y="534"/>
      <point x="578" y="553"/>
      <point x="549" y="553" type="curve" smooth="yes"/>
      <point x="503" y="553"/>
      <point x="467" y="521"/>
      <point x="375" y="512" type="curve"/>
      <point x="415" y="642"/>
      <point x="474" y="673"/>
      <point x="474" y="735" type="curve" smooth="yes"/>
      <point x="474" y="761"/>
      <point x="456" y="780"/>
      <point x="427" y="780" type="curve" smooth="yes"/>
      <point x="377" y="780"/>
      <point x="343" y="734"/>
      <point x="343" y="683" type="curve" smooth="yes"/>
      <point x="343" y="662"/>
      <point x="347" y="641"/>
      <point x="347" y="612" type="curve" smooth="yes"/>
      <point x="347" y="587"/>
      <point x="344" y="555"/>
      <point x="334" y="512" type="curve"/>
      <point x="245" y="520"/>
      <point x="226" y="553"/>
      <point x="181" y="553" type="curve" smooth="yes"/>
      <point x="142" y="553"/>
      <point x="100" y="517"/>
      <point x="100" y="475" type="curve" smooth="yes"/>
      <point x="100" y="448"/>
      <point x="119" y="429"/>
      <point x="148" y="429" type="curve" smooth="yes"/>
      <point x="194" y="429"/>
      <point x="230" y="461"/>
      <point x="324" y="469" type="curve"/>
      <point x="296" y="370"/>
      <point x="265" y="317"/>
      <point x="213" y="261" type="curve"/>
      <point x="223" y="232"/>
      <point x="230" y="203"/>
      <point x="230" y="170" type="curve" smooth="yes"/>
      <point x="230" y="137"/>
      <point x="224" y="100"/>
      <point x="211" y="51" type="curve"/>
      <point x="123" y="59"/>
      <point x="103" y="91"/>
      <point x="57" y="91" type="curve" smooth="yes"/>
      <point x="17" y="91"/>
      <point x="-23" y="54"/>
      <point x="-23" y="11" type="curve" smooth="yes"/>
      <point x="-23" y="-15"/>
      <point x="-4" y="-33"/>
      <point x="24" y="-33" type="curve" smooth="yes"/>
      <point x="69" y="-33"/>
      <point x="106" y="0"/>
      <point x="199" y="8" type="curve"/>
      <point x="161" y="-121"/>
      <point x="100" y="-152"/>
      <point x="100" y="-216" type="curve" smooth="yes"/>
      <point x="100" y="-242"/>
      <point x="119" y="-260"/>
      <point x="148" y="-260" type="curve" smooth="yes"/>
      <point x="198" y="-260"/>
      <point x="231" y="-214"/>
      <point x="231" y="-163" type="curve" smooth="yes"/>
      <point x="231" y="-142"/>
      <point x="228" y="-121"/>
      <point x="228" y="-91" type="curve" smooth="yes"/>
      <point x="228" y="-66"/>
      <point x="230" y="-35"/>
      <point x="240" y="8" type="curve"/>
      <point x="328" y="-1"/>
      <point x="346" y="-33"/>
      <point x="392" y="-33" type="curve" smooth="yes"/>
      <point x="431" y="-33"/>
      <point x="473" y="3"/>
      <point x="473" y="45" type="curve" smooth="yes"/>
      <point x="473" y="72"/>
      <point x="454" y="91"/>
      <point x="425" y="91" type="curve" smooth="yes"/>
      <point x="379" y="91"/>
      <point x="343" y="59"/>
      <point x="251" y="51" type="curve"/>
      <point x="278" y="150"/>
      <point x="311" y="205"/>
    </contour>
  </outline>
</glyph>
<glyph name="bullet" format="1">
  <advance width="485"/>
  <unicode hex="2022"/>
  <outline>
    <contour>
      <point x="250" y="216" type="curve" smooth="yes"/>
      <point x="337" y="216"/>
      <point x="407" y="284"/>
      <point x="407" y="369" type="curve" smooth="yes"/>
      <point x="407" y="454"/>
      <point x="337" y="521"/>
      <point x="255" y="521" type="curve" smooth="yes"/>
      <point x="170" y="521"/>
      <point x="99" y="454"/>
      <point x="99" y="369" type="curve" smooth="yes"/>
      <point x="99" y="284"/>
      <point x="170" y="216"/>
    </contour>
  </outline>
</glyph>
<glyph name="ellipsis" format="1">
  <advance width="722"/>
  <unicode hex="2026"/>
  <outline>
    <contour>
      <point x="68" y="-10" type="curve" smooth="yes"/>
      <point x="107" y="-10"/>
      <point x="139" y="20"/>
      <point x="139" y="59" type="curve" smooth="yes"/>
      <point x="139" y="97"/>
      <point x="109" y="130"/>
      <point x="68" y="130" type="curve" smooth="yes"/>
      <point x="29" y="130"/>
      <point x="-1" y="98"/>
      <point x="-1" y="58" type="curve" smooth="yes"/>
      <point x="-1" y="18"/>
      <point x="31" y="-10"/>
    </contour>
    <contour>
      <point x="298" y="-10" type="curve" smooth="yes"/>
      <point x="337" y="-10"/>
      <point x="369" y="20"/>
      <point x="369" y="59" type="curve" smooth="yes"/>
      <point x="369" y="97"/>
      <point x="339" y="130"/>
      <point x="298" y="130" type="curve" smooth="yes"/>
      <point x="259" y="130"/>
      <point x="229" y="98"/>
      <point x="229" y="58" type="curve" smooth="yes"/>
      <point x="229" y="18"/>
      <point x="261" y="-10"/>
    </contour>
    <contour>
      <point x="528" y="-10" type="curve" smooth="yes"/>
      <point x="567" y="-10"/>
      <point x="599" y="20"/>
      <point x="599" y="59" type="curve" smooth="yes"/>
      <point x="599" y="97"/>
      <point x="569" y="130"/>
      <point x="528" y="130" type="curve" smooth="yes"/>
      <point x="489" y="130"/>
      <point x="459" y="98"/>
      <point x="459" y="58" type="curve" smooth="yes"/>
      <point x="459" y="18"/>
      <point x="491" y="-10"/>
    </contour>
  </outline>
</glyph>
<glyph name="zerosuperior" format="1">
  <advance width="307"/>
  <unicode hex="2070"/>
  <outline>
    <contour>
      <point x="201" y="465" type="curve" smooth="yes"/>
      <point x="276" y="465"/>
      <point x="359" y="577"/>
      <point x="359" y="679" type="curve" smooth="yes"/>
      <point x="359" y="740"/>
      <point x="324" y="781"/>
      <point x="272" y="781" type="curve" smooth="yes"/>
      <point x="195" y="781"/>
      <point x="115" y="675"/>
      <point x="115" y="572" type="curve" smooth="yes"/>
      <point x="115" y="508"/>
      <point x="150" y="465"/>
    </contour>
    <contour>
      <point x="268" y="755" type="curve" smooth="yes"/>
      <point x="291" y="755"/>
      <point x="304" y="736"/>
      <point x="304" y="703" type="curve" smooth="yes"/>
      <point x="304" y="603"/>
      <point x="253" y="491"/>
      <point x="207" y="491" type="curve" smooth="yes"/>
      <point x="183" y="491"/>
      <point x="169" y="511"/>
      <point x="169" y="546" type="curve" smooth="yes"/>
      <point x="169" y="644"/>
      <point x="222" y="755"/>
    </contour>
  </outline>
</glyph>
<glyph name="foursuperior" format="1">
  <advance width="260"/>
  <unicode hex="2074"/>
  <outline>
    <contour>
      <point x="306" y="780" type="line"/>
      <point x="283" y="780" type="line"/>
      <point x="97" y="602" type="line"/>
      <point x="92" y="582" type="line"/>
      <point x="210" y="582" type="line"/>
      <point x="181" y="468" type="line"/>
      <point x="223" y="468" type="line"/>
      <point x="256" y="582" type="line"/>
      <point x="305" y="582" type="line"/>
      <point x="311" y="606" type="line"/>
      <point x="262" y="606" type="line"/>
    </contour>
    <contour>
      <point x="134" y="606" type="line"/>
      <point x="243" y="712" type="line"/>
      <point x="246" y="711" type="line"/>
      <point x="217" y="606" type="line"/>
    </contour>
  </outline>
</glyph>
<glyph name="sevensuperior" format="1">
  <advance width="245"/>
  <unicode hex="2077"/>
  <outline>
    <contour>
      <point x="286" y="729" type="line"/>
      <point x="173" y="574" type="line" smooth="yes"/>
      <point x="119" y="500"/>
      <point x="111" y="488"/>
      <point x="111" y="477" type="curve" smooth="yes"/>
      <point x="111" y="468"/>
      <point x="117" y="458"/>
      <point x="132" y="458" type="curve" smooth="yes"/>
      <point x="147" y="458"/>
      <point x="162" y="469"/>
      <point x="188" y="516" type="curve" smooth="yes"/>
      <point x="267" y="658"/>
      <point x="274" y="669"/>
      <point x="330" y="757" type="curve"/>
      <point x="331" y="770" type="line"/>
      <point x="210" y="770" type="line" smooth="yes"/>
      <point x="189" y="770"/>
      <point x="180" y="773"/>
      <point x="180" y="781" type="curve" smooth="yes"/>
      <point x="180" y="783"/>
      <point x="181" y="782"/>
      <point x="181" y="784" type="curve"/>
      <point x="164" y="784" type="line"/>
      <point x="127" y="689" type="line"/>
      <point x="149" y="689" type="line"/>
      <point x="157" y="705" type="line" smooth="yes"/>
      <point x="169" y="728"/>
      <point x="185" y="729"/>
      <point x="216" y="729" type="curve" smooth="yes"/>
    </contour>
  </outline>
</glyph>
<glyph name="ninesuperior" format="1">
  <advance width="292"/>
  <unicode hex="2079"/>
  <outline>
    <contour>
      <point x="136" y="664" type="curve" smooth="yes"/>
      <point x="136" y="614"/>
      <point x="172" y="581"/>
      <point x="225" y="581" type="curve" smooth="yes"/>
      <point x="244" y="581"/>
      <point x="261" y="586"/>
      <point x="278" y="597" type="curve"/>
      <point x="281" y="596" type="line"/>
      <point x="263" y="532"/>
      <point x="220" y="487"/>
      <point x="177" y="487" type="curve" smooth="yes"/>
      <point x="144" y="487"/>
      <point x="167" y="535"/>
      <point x="137" y="535" type="curve" smooth="yes"/>
      <point x="120" y="535"/>
      <point x="110" y="523"/>
      <point x="110" y="507" type="curve" smooth="yes"/>
      <point x="110" y="482"/>
      <point x="139" y="464"/>
      <point x="177" y="464" type="curve" smooth="yes"/>
      <point x="262" y="464"/>
      <point x="341" y="562"/>
      <point x="341" y="668" type="curve" smooth="yes"/>
      <point x="341" y="737"/>
      <point x="306" y="780"/>
      <point x="251" y="780" type="curve" smooth="yes"/>
      <point x="190" y="780"/>
      <point x="136" y="726"/>
    </contour>
    <contour>
      <point x="232" y="605" type="curve" smooth="yes"/>
      <point x="203" y="605"/>
      <point x="189" y="626"/>
      <point x="189" y="667" type="curve" smooth="yes"/>
      <point x="189" y="717"/>
      <point x="217" y="757"/>
      <point x="253" y="757" type="curve" smooth="yes"/>
      <point x="281" y="757"/>
      <point x="296" y="733"/>
      <point x="296" y="690" type="curve" smooth="yes"/>
      <point x="296" y="639"/>
      <point x="270" y="605"/>
    </contour>
  </outline>
</glyph>
<glyph name="twoinferior" format="1">
  <advance width="283"/>
  <unicode hex="2082"/>
  <outline>
    <contour>
      <point x="38" y="43" type="line"/>
      <point x="161" y="129"/>
      <point x="208" y="185"/>
      <point x="208" y="239" type="curve" smooth="yes"/>
      <point x="208" y="283"/>
      <point x="173" y="313"/>
      <point x="119" y="313" type="curve" smooth="yes"/>
      <point x="59" y="313"/>
      <point x="10" y="274"/>
      <point x="10" y="227" type="curve" smooth="yes"/>
      <point x="10" y="197"/>
      <point x="29" y="177"/>
      <point x="58" y="177" type="curve" smooth="yes"/>
      <point x="75" y="177"/>
      <point x="88" y="185"/>
      <point x="93" y="199" type="curve"/>
      <point x="69" y="199"/>
      <point x="55" y="213"/>
      <point x="55" y="237" type="curve" smooth="yes"/>
      <point x="55" y="264"/>
      <point x="80" y="286"/>
      <point x="111" y="286" type="curve" smooth="yes"/>
      <point x="139" y="286"/>
      <point x="156" y="268"/>
      <point x="156" y="240" type="curve" smooth="yes"/>
      <point x="156" y="185"/>
      <point x="109" y="128"/>
      <point x="-25" y="21" type="curve"/>
      <point x="-28" y="0" type="line"/>
      <point x="157" y="0" type="line"/>
      <point x="182" y="69" type="line"/>
      <point x="163" y="69" type="line"/>
      <point x="148" y="46"/>
      <point x="136" y="39"/>
      <point x="110" y="39" type="curve" smooth="yes"/>
      <point x="38" y="39" type="line"/>
    </contour>
  </outline>
</glyph>
<glyph name="fourinferior" format="1">
  <advance width="259"/>
  <unicode hex="2084"/>
  <outline>
    <contour>
      <point x="180" y="312" type="line"/>
      <point x="157" y="312" type="line"/>
      <point x="-29" y="134" type="line"/>
      <point x="-34" y="114" type="line"/>
      <point x="84" y="114" type="line"/>
      <point x="55" y="0" type="line"/>
      <point x="97" y="0" type="line"/>
      <point x="130" y="114" type="line"/>
      <point x="179" y="114" type="line"/>
      <point x="185" y="138" type="line"/>
      <point x="136" y="138" type="line"/>
    </contour>
    <contour>
      <point x="8" y="138" type="line"/>
      <point x="117" y="244" type="line"/>
      <point x="120" y="243" type="line"/>
      <point x="91" y="138" type="line"/>
    </contour>
  </outline>
</glyph>
<glyph name="fiveinferior" format="1">
  <advance width="285"/>
  <unicode hex="2085"/>
  <outline>
    <contour>
      <point x="98" y="191" type="curve" smooth="yes"/>
      <point x="84" y="191"/>
      <point x="65" y="188"/>
      <point x="58" y="185" type="curve"/>
      <point x="55" y="187" type="line"/>
      <point x="82" y="264" type="line"/>
      <point x="99" y="260"/>
      <point x="122" y="257"/>
      <point x="137" y="257" type="curve" smooth="yes"/>
      <point x="173" y="257"/>
      <point x="196" y="274"/>
      <point x="207" y="306" type="curve"/>
      <point x="204" y="307" type="line"/>
      <point x="190" y="302"/>
      <point x="167" y="299"/>
      <point x="138" y="299" type="curve" smooth="yes"/>
      <point x="109" y="299"/>
      <point x="83" y="302"/>
      <point x="71" y="306" type="curve"/>
      <point x="25" y="174" type="line" smooth="yes"/>
      <point x="22" y="166"/>
      <point x="17" y="152"/>
      <point x="17" y="149" type="curve" smooth="yes"/>
      <point x="17" y="145"/>
      <point x="20" y="142"/>
      <point x="23" y="142" type="curve" smooth="yes"/>
      <point x="33" y="142"/>
      <point x="45" y="166"/>
      <point x="84" y="166" type="curve" smooth="yes"/>
      <point x="123" y="166"/>
      <point x="145" y="145"/>
      <point x="145" y="106" type="curve" smooth="yes"/>
      <point x="145" y="54"/>
      <point x="112" y="16"/>
      <point x="68" y="16" type="curve" smooth="yes"/>
      <point x="39" y="16"/>
      <point x="21" y="30"/>
      <point x="21" y="52" type="curve" smooth="yes"/>
      <point x="21" y="74"/>
      <point x="34" y="90"/>
      <point x="51" y="90" type="curve"/>
      <point x="49" y="100"/>
      <point x="38" y="108"/>
      <point x="25" y="108" type="curve" smooth="yes"/>
      <point x="-1" y="108"/>
      <point x="-22" y="83"/>
      <point x="-22" y="54" type="curve" smooth="yes"/>
      <point x="-22" y="15"/>
      <point x="13" y="-10"/>
      <point x="65" y="-10" type="curve" smooth="yes"/>
      <point x="138" y="-10"/>
      <point x="197" y="40"/>
      <point x="197" y="101" type="curve" smooth="yes"/>
      <point x="197" y="153"/>
      <point x="155" y="191"/>
    </contour>
  </outline>
</glyph>
<glyph name="sixinferior" format="1">
  <advance width="293"/>
  <unicode hex="2086"/>
  <outline>
    <contour>
      <point x="194" y="106" type="curve" smooth="yes"/>
      <point x="194" y="156"/>
      <point x="158" y="189"/>
      <point x="105" y="189" type="curve" smooth="yes"/>
      <point x="86" y="189"/>
      <point x="69" y="184"/>
      <point x="52" y="173" type="curve"/>
      <point x="49" y="174" type="line"/>
      <point x="67" y="238"/>
      <point x="110" y="283"/>
      <point x="153" y="283" type="curve" smooth="yes"/>
      <point x="169" y="283"/>
      <point x="174" y="276"/>
      <point x="174" y="257" type="curve" smooth="yes"/>
      <point x="174" y="243"/>
      <point x="182" y="235"/>
      <point x="193" y="235" type="curve" smooth="yes"/>
      <point x="210" y="235"/>
      <point x="220" y="247"/>
      <point x="220" y="263" type="curve" smooth="yes"/>
      <point x="220" y="288"/>
      <point x="191" y="306"/>
      <point x="153" y="306" type="curve" smooth="yes"/>
      <point x="68" y="306"/>
      <point x="-11" y="208"/>
      <point x="-11" y="102" type="curve" smooth="yes"/>
      <point x="-11" y="33"/>
      <point x="24" y="-10"/>
      <point x="79" y="-10" type="curve" smooth="yes"/>
      <point x="140" y="-10"/>
      <point x="194" y="44"/>
    </contour>
    <contour>
      <point x="98" y="165" type="curve" smooth="yes"/>
      <point x="127" y="165"/>
      <point x="141" y="144"/>
      <point x="141" y="103" type="curve" smooth="yes"/>
      <point x="141" y="53"/>
      <point x="113" y="13"/>
      <point x="77" y="13" type="curve" smooth="yes"/>
      <point x="49" y="13"/>
      <point x="34" y="37"/>
      <point x="34" y="80" type="curve" smooth="yes"/>
      <point x="34" y="131"/>
      <point x="60" y="165"/>
    </contour>
  </outline>
</glyph>
<glyph name="seveninferior" format="1">
  <advance width="246"/>
  <unicode hex="2087"/>
  <outline>
    <contour>
      <point x="161" y="261" type="line"/>
      <point x="48" y="106" type="line" smooth="yes"/>
      <point x="-6" y="32"/>
      <point x="-14" y="20"/>
      <point x="-14" y="9" type="curve" smooth="yes"/>
      <point x="-14" y="0"/>
      <point x="-8" y="-10"/>
      <point x="7" y="-10" type="curve" smooth="yes"/>
      <point x="22" y="-10"/>
      <point x="37" y="1"/>
      <point x="63" y="48" type="curve" smooth="yes"/>
      <point x="142" y="190"/>
      <point x="149" y="201"/>
      <point x="205" y="289" type="curve"/>
      <point x="206" y="302" type="line"/>
      <point x="85" y="302" type="line" smooth="yes"/>
      <point x="64" y="302"/>
      <point x="55" y="305"/>
      <point x="55" y="313" type="curve" smooth="yes"/>
      <point x="55" y="315"/>
      <point x="56" y="314"/>
      <point x="56" y="316" type="curve"/>
      <point x="39" y="316" type="line"/>
      <point x="2" y="221" type="line"/>
      <point x="24" y="221" type="line"/>
      <point x="32" y="237" type="line" smooth="yes"/>
      <point x="44" y="260"/>
      <point x="60" y="261"/>
      <point x="91" y="261" type="curve" smooth="yes"/>
    </contour>
  </outline>
</glyph>
<glyph name="servicemark" format="1">
  <advance width="812"/>
  <unicode hex="2120"/>
  <outline>
    <contour>
      <point x="593" y="544" type="line"/>
      <point x="691" y="770" type="line"/>
      <point x="791" y="770" type="line"/>
      <point x="791" y="750" type="line"/>
      <point x="756" y="749"/>
      <point x="751" y="738"/>
      <point x="751" y="689" type="curve" smooth="yes"/>
      <point x="751" y="543" type="line" smooth="yes"/>
      <point x="751" y="490"/>
      <point x="757" y="483"/>
      <point x="795" y="482" type="curve"/>
      <point x="795" y="462" type="line"/>
      <point x="660" y="462" type="line"/>
      <point x="660" y="482" type="line"/>
      <point x="699" y="483"/>
      <point x="704" y="490"/>
      <point x="704" y="540" type="curve" smooth="yes"/>
      <point x="704" y="720" type="line"/>
      <point x="700" y="720" type="line"/>
      <point x="583" y="458" type="line"/>
      <point x="575" y="458" type="line"/>
      <point x="462" y="720" type="line"/>
      <point x="458" y="720" type="line"/>
      <point x="458" y="543" type="line" smooth="yes"/>
      <point x="458" y="490"/>
      <point x="464" y="483"/>
      <point x="502" y="482" type="curve"/>
      <point x="502" y="462" type="line"/>
      <point x="385" y="462" type="line"/>
      <point x="385" y="482" type="line"/>
      <point x="423" y="483"/>
      <point x="429" y="490"/>
      <point x="429" y="540" type="curve" smooth="yes"/>
      <point x="429" y="692" type="line" smooth="yes"/>
      <point x="429" y="737"/>
      <point x="424" y="748"/>
      <point x="389" y="750" type="curve"/>
      <point x="389" y="770" type="line"/>
      <point x="495" y="770" type="line"/>
      <point x="589" y="544" type="line"/>
    </contour>
    <contour>
      <point x="153" y="472" type="line"/>
      <point x="167" y="472" type="line"/>
      <point x="178" y="492" type="line"/>
      <point x="201" y="473"/>
      <point x="224" y="464"/>
      <point x="255" y="464" type="curve" smooth="yes"/>
      <point x="308" y="464"/>
      <point x="365" y="493"/>
      <point x="365" y="554" type="curve" smooth="yes"/>
      <point x="365" y="657"/>
      <point x="207" y="639"/>
      <point x="207" y="716" type="curve" smooth="yes"/>
      <point x="207" y="743"/>
      <point x="230" y="755"/>
      <point x="255" y="755" type="curve" smooth="yes"/>
      <point x="295" y="755"/>
      <point x="312" y="725"/>
      <point x="322" y="695" type="curve"/>
      <point x="339" y="695" type="line"/>
      <point x="339" y="774" type="line"/>
      <point x="328" y="774" type="line"/>
      <point x="317" y="756" type="line"/>
      <point x="296" y="773"/>
      <point x="276" y="780"/>
      <point x="254" y="780" type="curve" smooth="yes"/>
      <point x="207" y="780"/>
      <point x="164" y="750"/>
      <point x="164" y="696" type="curve" smooth="yes"/>
      <point x="164" y="586"/>
      <point x="316" y="616"/>
      <point x="316" y="536" type="curve" smooth="yes"/>
      <point x="316" y="505"/>
      <point x="289" y="489"/>
      <point x="256" y="489" type="curve" smooth="yes"/>
      <point x="204" y="489"/>
      <point x="178" y="523"/>
      <point x="171" y="562" type="curve"/>
      <point x="153" y="562" type="line"/>
    </contour>
  </outline>
</glyph>
<glyph name="uni2215" format="1">
  <advance width="464"/>
  <unicode hex="2215"/>
  <outline>
    <contour>
      <point x="592" y="770" type="line"/>
      <point x="534" y="770" type="line"/>
      <point x="-89" y="0" type="line"/>
      <point x="-22" y="0" type="line"/>
    </contour>
  </outline>
</glyph>
<glyph name="f_f" format="1">
  <advance width="633"/>
  <unicode hex="FB00"/>
  <outline>
    <contour>
      <point x="246" y="450" type="line"/>
      <point x="435" y="450" type="line"/>
      <point x="291" y="-113" type="line" smooth="yes"/>
      <point x="276" y="-171"/>
      <point x="254" y="-200"/>
      <point x="225" y="-200" type="curve" smooth="yes"/>
      <point x="185" y="-200"/>
      <point x="191" y="-145"/>
      <point x="147" y="-145" type="curve" smooth="yes"/>
      <point x="121" y="-145"/>
      <point x="103" y="-164"/>
      <point x="103" y="-192" type="curve" smooth="yes"/>
      <point x="103" y="-234"/>
      <point x="141" y="-260"/>
      <point x="202" y="-260" type="curve" smooth="yes"/>
      <point x="312" y="-260"/>
      <point x="375" y="-169"/>
      <point x="435" y="73" type="curve" smooth="yes"/>
      <point x="528" y="450" type="line"/>
      <point x="646" y="450" type="line"/>
      <point x="660" y="496" type="line"/>
      <point x="539" y="496" type="line"/>
      <point x="577" y="683"/>
      <point x="628" y="785"/>
      <point x="683" y="785" type="curve" smooth="yes"/>
      <point x="736" y="785"/>
      <point x="704" y="689"/>
      <point x="772" y="689" type="curve" smooth="yes"/>
      <point x="802" y="689"/>
      <point x="823" y="711"/>
      <point x="823" y="743" type="curve" smooth="yes"/>
      <point x="823" y="792"/>
      <point x="766" y="830"/>
      <point x="693" y="830" type="curve" smooth="yes"/>
      <point x="634" y="830"/>
      <point x="587" y="804"/>
      <point x="546" y="747" type="curve"/>
      <point x="515" y="768"/>
      <point x="467" y="780"/>
      <point x="410" y="780" type="curve" smooth="yes"/>
      <point x="285" y="780"/>
      <point x="225" y="710"/>
      <point x="165" y="496" type="curve"/>
      <point x="70" y="496" type="line"/>
      <point x="57" y="450" type="line"/>
      <point x="153" y="450" type="line"/>
      <point x="8" y="-113" type="line" smooth="yes"/>
      <point x="-6" y="-168"/>
      <point x="-33" y="-200"/>
      <point x="-65" y="-200" type="curve" smooth="yes"/>
      <point x="-113" y="-200"/>
      <point x="-90" y="-130"/>
      <point x="-145" y="-130" type="curve" smooth="yes"/>
      <point x="-175" y="-130"/>
      <point x="-194" y="-151"/>
      <point x="-194" y="-183" type="curve" smooth="yes"/>
      <point x="-194" y="-230"/>
      <point x="-153" y="-260"/>
      <point x="-88" y="-260" type="curve" smooth="yes"/>
      <point x="25" y="-260"/>
      <point x="92" y="-167"/>
      <point x="152" y="73" type="curve" smooth="yes"/>
    </contour>
    <contour>
      <point x="447" y="496" type="curve"/>
      <point x="257" y="496" type="line"/>
      <point x="304" y="678"/>
      <point x="342" y="735"/>
      <point x="414" y="735" type="curve" smooth="yes"/>
      <point x="454" y="735"/>
      <point x="490" y="717"/>
      <point x="510" y="686" type="curve"/>
      <point x="488" y="636"/>
      <point x="463" y="562"/>
    </contour>
  </outline>
</glyph>
<glyph name="f_i" format="1">
  <advance width="614"/>
  <unicode hex="FB01"/>
  <outline>
    <contour>
      <point x="323" y="450" type="line"/>
      <point x="384" y="450"/>
      <point x="410" y="445"/>
      <point x="410" y="408" type="curve" smooth="yes"/>
      <point x="410" y="390"/>
      <point x="404" y="365"/>
      <point x="394" y="330" type="curve" smooth="yes"/>
      <point x="356" y="202" type="line" smooth="yes"/>
      <point x="338" y="140"/>
      <point x="328" y="100"/>
      <point x="328" y="65" type="curve" smooth="yes"/>
      <point x="328" y="12"/>
      <point x="349" y="-10"/>
      <point x="390" y="-10" type="curve" smooth="yes"/>
      <point x="476" y="-10"/>
      <point x="548" y="89"/>
      <point x="575" y="154" type="curve"/>
      <point x="544" y="171" type="line"/>
      <point x="531" y="144"/>
      <point x="482" y="67"/>
      <point x="443" y="67" type="curve" smooth="yes"/>
      <point x="427" y="67"/>
      <point x="421" y="79"/>
      <point x="421" y="92" type="curve" smooth="yes"/>
      <point x="421" y="112"/>
      <point x="433" y="154"/>
      <point x="437" y="168" type="curve" smooth="yes"/>
      <point x="504" y="387" type="line" smooth="yes"/>
      <point x="518" y="434"/>
      <point x="525" y="462"/>
      <point x="525" y="479" type="curve" smooth="yes"/>
      <point x="525" y="502"/>
      <point x="514" y="506"/>
      <point x="494" y="506" type="curve" smooth="yes"/>
      <point x="462" y="506"/>
      <point x="417" y="496"/>
      <point x="326" y="496" type="curve"/>
    </contour>
    <component base="f"/>
  </outline>
</glyph>
<glyph name="f_f_i" format="1">
  <advance width="893"/>
  <unicode hex="FB03"/>
  <outline>
    <contour>
      <point x="602" y="450" type="line" smooth="yes"/>
      <point x="663" y="450"/>
      <point x="689" y="445"/>
      <point x="689" y="408" type="curve" smooth="yes"/>
      <point x="689" y="390"/>
      <point x="683" y="365"/>
      <point x="673" y="330" type="curve" smooth="yes"/>
      <point x="635" y="202" type="line" smooth="yes"/>
      <point x="617" y="140"/>
      <point x="607" y="100"/>
      <point x="607" y="65" type="curve" smooth="yes"/>
      <point x="607" y="12"/>
      <point x="628" y="-10"/>
      <point x="669" y="-10" type="curve" smooth="yes"/>
      <point x="755" y="-10"/>
      <point x="827" y="89"/>
      <point x="854" y="154" type="curve"/>
      <point x="823" y="171" type="line"/>
      <point x="810" y="144"/>
      <point x="761" y="67"/>
      <point x="722" y="67" type="curve" smooth="yes"/>
      <point x="706" y="67"/>
      <point x="700" y="79"/>
      <point x="700" y="92" type="curve" smooth="yes"/>
      <point x="700" y="112"/>
      <point x="712" y="154"/>
      <point x="716" y="168" type="curve" smooth="yes"/>
      <point x="783" y="387" type="line" smooth="yes"/>
      <point x="797" y="434"/>
      <point x="804" y="462"/>
      <point x="804" y="479" type="curve" smooth="yes"/>
      <point x="804" y="502"/>
      <point x="793" y="506"/>
      <point x="773" y="506" type="curve" smooth="yes"/>
      <point x="741" y="506"/>
      <point x="696" y="496"/>
      <point x="605" y="496" type="curve" smooth="yes"/>
      <point x="539" y="496" type="line"/>
      <point x="577" y="683"/>
      <point x="628" y="785"/>
      <point x="683" y="785" type="curve" smooth="yes"/>
      <point x="736" y="785"/>
      <point x="704" y="689"/>
      <point x="772" y="689" type="curve" smooth="yes"/>
      <point x="802" y="689"/>
      <point x="823" y="711"/>
      <point x="823" y="743" type="curve" smooth="yes"/>
      <point x="823" y="792"/>
      <point x="766" y="830"/>
      <point x="693" y="830" type="curve" smooth="yes"/>
      <point x="634" y="830"/>
      <point x="587" y="804"/>
      <point x="546" y="747" type="curve"/>
      <point x="515" y="768"/>
      <point x="467" y="780"/>
      <point x="410" y="780" type="curve" smooth="yes"/>
      <point x="285" y="780"/>
      <point x="225" y="710"/>
      <point x="165" y="496" type="curve"/>
      <point x="70" y="496" type="line"/>
      <point x="57" y="450" type="line"/>
      <point x="153" y="450" type="line"/>
      <point x="8" y="-113" type="line" smooth="yes"/>
      <point x="-6" y="-168"/>
      <point x="-33" y="-200"/>
      <point x="-65" y="-200" type="curve" smooth="yes"/>
      <point x="-113" y="-200"/>
      <point x="-90" y="-130"/>
      <point x="-145" y="-130" type="curve" smooth="yes"/>
      <point x="-175" y="-130"/>
      <point x="-194" y="-151"/>
      <point x="-194" y="-183" type="curve" smooth="yes"/>
      <point x="-194" y="-230"/>
      <point x="-153" y="-260"/>
      <point x="-88" y="-260" type="curve" smooth="yes"/>
      <point x="25" y="-260"/>
      <point x="92" y="-167"/>
      <point x="152" y="73" type="curve" smooth="yes"/>
      <point x="246" y="450" type="line"/>
      <point x="435" y="450" type="line"/>
      <point x="291" y="-113" type="line" smooth="yes"/>
      <point x="276" y="-171"/>
      <point x="254" y="-200"/>
      <point x="225" y="-200" type="curve" smooth="yes"/>
      <point x="185" y="-200"/>
      <point x="191" y="-145"/>
      <point x="147" y="-145" type="curve" smooth="yes"/>
      <point x="121" y="-145"/>
      <point x="103" y="-164"/>
      <point x="103" y="-192" type="curve" smooth="yes"/>
      <point x="103" y="-234"/>
      <point x="141" y="-260"/>
      <point x="202" y="-260" type="curve" smooth="yes"/>
      <point x="312" y="-260"/>
      <point x="375" y="-169"/>
      <point x="435" y="73" type="curve" smooth="yes"/>
      <point x="528" y="450" type="line"/>
    </contour>
    <contour>
      <point x="447" y="496" type="curve"/>
      <point x="257" y="496" type="line"/>
      <point x="304" y="678"/>
      <point x="342" y="735"/>
      <point x="414" y="735" type="curve" smooth="yes"/>
      <point x="454" y="735"/>
      <point x="490" y="717"/>
      <point x="510" y="686" type="curve"/>
      <point x="488" y="636"/>
      <point x="463" y="562"/>
    </contour>
  </outline>
</glyph>
<glyph name="s_t" format="1">
  <advance width="721"/>
  <unicode hex="FB06"/>
  <outline>
    <contour>
      <point x="700" y="447" type="line"/>
      <point x="714" y="493" type="line"/>
      <point x="605" y="493" type="line"/>
      <point x="689" y="769" type="line"/>
      <point x="597" y="769" type="line"/>
      <point x="513" y="493" type="line"/>
      <point x="426" y="493" type="line"/>
      <point x="413" y="447" type="line"/>
      <point x="499" y="447" type="line"/>
      <point x="425" y="202" type="line" smooth="yes"/>
      <point x="403" y="128"/>
      <point x="394" y="83"/>
      <point x="394" y="55" type="curve" smooth="yes"/>
      <point x="394" y="13"/>
      <point x="414" y="-10"/>
      <point x="454" y="-10" type="curve" smooth="yes"/>
      <point x="525" y="-10"/>
      <point x="619" y="66"/>
      <point x="670" y="164" type="curve"/>
      <point x="641" y="181" type="line"/>
      <point x="606" y="124"/>
      <point x="542" y="67"/>
      <point x="511" y="67" type="curve" smooth="yes"/>
      <point x="497" y="67"/>
      <point x="490" y="75"/>
      <point x="490" y="90" type="curve" smooth="yes"/>
      <point x="490" y="104"/>
      <point x="497" y="136"/>
      <point x="508" y="172" type="curve" smooth="yes"/>
      <point x="591" y="447" type="line"/>
    </contour>
    <contour>
      <point x="598" y="769" type="line"/>
      <point x="574" y="724"/>
      <point x="535" y="698"/>
      <point x="493" y="698" type="curve" smooth="yes"/>
      <point x="444" y="698"/>
      <point x="391" y="730"/>
      <point x="339" y="730" type="curve" smooth="yes"/>
      <point x="272" y="730"/>
      <point x="220" y="683"/>
      <point x="220" y="622" type="curve" smooth="yes"/>
      <point x="220" y="549"/>
      <point x="288" y="491"/>
      <point x="288" y="491" type="curve"/>
      <point x="319" y="519" type="line"/>
      <point x="286" y="540"/>
      <point x="270" y="566"/>
      <point x="270" y="602" type="curve" smooth="yes"/>
      <point x="270" y="649"/>
      <point x="299" y="679"/>
      <point x="344" y="679" type="curve" smooth="yes"/>
      <point x="388" y="679"/>
      <point x="427" y="648"/>
      <point x="491" y="648" type="curve" smooth="yes"/>
      <point x="536" y="648"/>
      <point x="570" y="674"/>
      <point x="593" y="710" type="curve"/>
    </contour>
    <component base="s"/>
  </outline>
</glyph>
<glyph name="acute.cap" format="1">
  <advance width="295"/>
  <outline>
    <contour>
      <point x="120" y="830" type="move" name="_topcap"/>
    </contour>
    <contour>
      <point x="65" y="850" type="line"/>
      <point x="192" y="878" type="line" smooth="yes"/>
      <point x="249" y="890"/>
      <point x="281" y="908"/>
      <point x="281" y="935" type="curve" smooth="yes"/>
      <point x="281" y="951"/>
      <point x="270" y="960"/>
      <point x="251" y="960" type="curve" smooth="yes"/>
      <point x="224" y="960"/>
      <point x="198" y="949"/>
      <point x="155" y="927" type="curve" smooth="yes"/>
      <point x="5" y="850" type="line"/>
    </contour>
  </outline>
</glyph>
<glyph name="caron.alt" format="1">
  <advance width="162"/>
  <outline>
    <contour>
      <point x="79" y="651" type="move" name="_top"/>
    </contour>
    <contour>
      <point x="20" y="584" type="line"/>
      <point x="117" y="629"/>
      <point x="151" y="677"/>
      <point x="151" y="733" type="curve" smooth="yes"/>
      <point x="151" y="763"/>
      <point x="135" y="780"/>
      <point x="105" y="780" type="curve" smooth="yes"/>
      <point x="65" y="780"/>
      <point x="30" y="750"/>
      <point x="30" y="711" type="curve" smooth="yes"/>
      <point x="30" y="692"/>
      <point x="42" y="680"/>
      <point x="63" y="680" type="curve" smooth="yes"/>
      <point x="74" y="680"/>
      <point x="84" y="683"/>
      <point x="91" y="688" type="curve"/>
      <point x="83" y="659"/>
      <point x="57" y="635"/>
      <point x="5" y="610" type="curve"/>
    </contour>
  </outline>
</glyph>
<glyph name="dotbelow" format="1">
  <advance width="164"/>
  <outline>
    <contour>
      <point x="82" y="0" type="move" name="_bottom"/>
    </contour>
    <contour>
      <point x="20" y="-168" type="curve" smooth="yes"/>
      <point x="20" y="-203"/>
      <point x="47" y="-230"/>
      <point x="82" y="-230" type="curve" smooth="yes"/>
      <point x="117" y="-230"/>
      <point x="144" y="-203"/>
      <point x="144" y="-168" type="curve" smooth="yes"/>
      <point x="144" y="-133"/>
      <point x="117" y="-106"/>
      <point x="82" y="-106" type="curve" smooth="yes"/>
      <point x="47" y="-106"/>
      <point x="20" y="-133"/>
    </contour>
  </outline>
</glyph>
<glyph name="f_f_b" format="1">
  <advance width="1111"/>
  <outline>
    <contour>
      <point x="908" y="829" type="line"/>
      <point x="795" y="804" type="line"/>
      <point x="775" y="814"/>
      <point x="745" y="820"/>
      <point x="714" y="820" type="curve" smooth="yes"/>
      <point x="650" y="820"/>
      <point x="599" y="795"/>
      <point x="555" y="741" type="curve"/>
      <point x="520" y="767"/>
      <point x="465" y="780"/>
      <point x="410" y="780" type="curve" smooth="yes"/>
      <point x="285" y="780"/>
      <point x="225" y="710"/>
      <point x="165" y="496" type="curve"/>
      <point x="70" y="496" type="line"/>
      <point x="57" y="450" type="line"/>
      <point x="153" y="450" type="line"/>
      <point x="8" y="-113" type="line" smooth="yes"/>
      <point x="-6" y="-168"/>
      <point x="-33" y="-200"/>
      <point x="-65" y="-200" type="curve" smooth="yes"/>
      <point x="-113" y="-200"/>
      <point x="-90" y="-130"/>
      <point x="-145" y="-130" type="curve" smooth="yes"/>
      <point x="-175" y="-130"/>
      <point x="-194" y="-151"/>
      <point x="-194" y="-183" type="curve" smooth="yes"/>
      <point x="-194" y="-230"/>
      <point x="-153" y="-260"/>
      <point x="-88" y="-260" type="curve" smooth="yes"/>
      <point x="25" y="-260"/>
      <point x="92" y="-167"/>
      <point x="152" y="73" type="curve" smooth="yes"/>
      <point x="246" y="450" type="line"/>
      <point x="435" y="450" type="line"/>
      <point x="290" y="-113" type="line" smooth="yes"/>
      <point x="276" y="-168"/>
      <point x="249" y="-200"/>
      <point x="217" y="-200" type="curve" smooth="yes"/>
      <point x="175" y="-200"/>
      <point x="195" y="-140"/>
      <point x="147" y="-140" type="curve" smooth="yes"/>
      <point x="117" y="-140"/>
      <point x="98" y="-161"/>
      <point x="98" y="-193" type="curve" smooth="yes"/>
      <point x="98" y="-234"/>
      <point x="135" y="-260"/>
      <point x="194" y="-260" type="curve" smooth="yes"/>
      <point x="307" y="-260"/>
      <point x="374" y="-167"/>
      <point x="434" y="73" type="curve" smooth="yes"/>
      <point x="528" y="450" type="line"/>
      <point x="633" y="450" type="line"/>
      <point x="647" y="496" type="line"/>
      <point x="539" y="496" type="line"/>
      <point x="584" y="676"/>
      <point x="646" y="775"/>
      <point x="715" y="775" type="curve" smooth="yes"/>
      <point x="750" y="775"/>
      <point x="771" y="750"/>
      <point x="771" y="712" type="curve" smooth="yes"/>
      <point x="771" y="702"/>
      <point x="769" y="691"/>
      <point x="766" y="679" type="curve"/>
    </contour>
    <contour>
      <point x="447" y="496" type="curve"/>
      <point x="257" y="496" type="line"/>
      <point x="304" y="678"/>
      <point x="342" y="735"/>
      <point x="414" y="735" type="curve" smooth="yes"/>
      <point x="451" y="735"/>
      <point x="494" y="715"/>
      <point x="514" y="678" type="curve"/>
      <point x="489" y="630"/>
      <point x="467" y="570"/>
    </contour>
    <contour>
      <point x="908" y="829" type="line"/>
      <point x="789" y="753" type="line"/>
      <point x="648" y="301" type="line" smooth="yes"/>
      <point x="620" y="213"/>
      <point x="605" y="149"/>
      <point x="605" y="114" type="curve" smooth="yes"/>
      <point x="605" y="41"/>
      <point x="659" y="-10"/>
      <point x="735" y="-10" type="curve" smooth="yes"/>
      <point x="897" y="-10"/>
      <point x="1076" y="207"/>
      <point x="1076" y="397" type="curve" smooth="yes"/>
      <point x="1076" y="484"/>
      <point x="1030" y="539"/>
      <point x="949" y="539" type="curve" smooth="yes"/>
      <point x="884" y="539"/>
      <point x="823" y="503"/>
      <point x="784" y="442" type="curve"/>
      <point x="781" y="444" type="line"/>
    </contour>
    <contour>
      <point x="751" y="41" type="curve" smooth="yes"/>
      <point x="717" y="41"/>
      <point x="700" y="69"/>
      <point x="700" y="123" type="curve" smooth="yes"/>
      <point x="700" y="270"/>
      <point x="832" y="486"/>
      <point x="922" y="486" type="curve" smooth="yes"/>
      <point x="953" y="486"/>
      <point x="977" y="451"/>
      <point x="977" y="405" type="curve" smooth="yes"/>
      <point x="977" y="256"/>
      <point x="844" y="41"/>
    </contour>
  </outline>
</glyph>
<glyph name="f_h" format="1">
  <advance width="867"/>
  <outline>
    <contour>
      <point x="621" y="830" type="line"/>
      <point x="513" y="804" type="line"/>
      <point x="493" y="814"/>
      <point x="463" y="820"/>
      <point x="432" y="820" type="curve" smooth="yes"/>
      <point x="307" y="820"/>
      <point x="227" y="723"/>
      <point x="165" y="496" type="curve"/>
      <point x="70" y="496" type="line"/>
      <point x="57" y="450" type="line"/>
      <point x="153" y="450" type="line"/>
      <point x="8" y="-113" type="line" smooth="yes"/>
      <point x="-6" y="-168"/>
      <point x="-33" y="-200"/>
      <point x="-65" y="-200" type="curve" smooth="yes"/>
      <point x="-113" y="-200"/>
      <point x="-90" y="-130"/>
      <point x="-145" y="-130" type="curve" smooth="yes"/>
      <point x="-175" y="-130"/>
      <point x="-194" y="-151"/>
      <point x="-194" y="-183" type="curve" smooth="yes"/>
      <point x="-194" y="-230"/>
      <point x="-153" y="-260"/>
      <point x="-88" y="-260" type="curve" smooth="yes"/>
      <point x="25" y="-260"/>
      <point x="92" y="-167"/>
      <point x="152" y="73" type="curve" smooth="yes"/>
      <point x="246" y="450" type="line"/>
      <point x="351" y="450" type="line"/>
      <point x="365" y="496" type="line"/>
      <point x="257" y="496" type="line"/>
      <point x="302" y="676"/>
      <point x="364" y="775"/>
      <point x="433" y="775" type="curve" smooth="yes"/>
      <point x="468" y="775"/>
      <point x="489" y="750"/>
      <point x="489" y="712" type="curve" smooth="yes"/>
      <point x="489" y="702"/>
      <point x="487" y="691"/>
      <point x="484" y="679" type="curve"/>
    </contour>
    <contour>
      <point x="649" y="311" type="curve" smooth="yes"/>
      <point x="591" y="144"/>
      <point x="579" y="98"/>
      <point x="579" y="53" type="curve" smooth="yes"/>
      <point x="579" y="9"/>
      <point x="594" y="-10"/>
      <point x="630" y="-10" type="curve" smooth="yes"/>
      <point x="697" y="-10"/>
      <point x="788" y="55"/>
      <point x="830" y="133" type="curve"/>
      <point x="802" y="154" type="line"/>
      <point x="762" y="99"/>
      <point x="720" y="65"/>
      <point x="693" y="65" type="curve" smooth="yes"/>
      <point x="680" y="65"/>
      <point x="674" y="73"/>
      <point x="674" y="88" type="curve" smooth="yes"/>
      <point x="674" y="100"/>
      <point x="677" y="108"/>
      <point x="729" y="253" type="curve" smooth="yes"/>
      <point x="757" y="329"/>
      <point x="770" y="387"/>
      <point x="770" y="431" type="curve" smooth="yes"/>
      <point x="770" y="501"/>
      <point x="735" y="540"/>
      <point x="672" y="540" type="curve" smooth="yes"/>
      <point x="611" y="540"/>
      <point x="553" y="504"/>
      <point x="510" y="442" type="curve"/>
      <point x="507" y="444" type="line"/>
      <point x="621" y="830" type="line"/>
      <point x="516" y="789" type="line"/>
      <point x="286" y="0" type="line"/>
      <point x="370" y="0" type="line"/>
      <point x="393" y="69" type="line" smooth="yes"/>
      <point x="491" y="363"/>
      <point x="566" y="487"/>
      <point x="648" y="487" type="curve" smooth="yes"/>
      <point x="672" y="487"/>
      <point x="681" y="476"/>
      <point x="681" y="445" type="curve" smooth="yes"/>
      <point x="681" y="415"/>
      <point x="672" y="379"/>
    </contour>
  </outline>
</glyph>
<glyph name="f_j" format="1">
  <advance width="568"/>
  <outline>
    <contour>
      <point x="504" y="387" type="line" smooth="yes"/>
      <point x="516" y="435"/>
      <point x="520" y="462"/>
      <point x="520" y="479" type="curve" smooth="yes"/>
      <point x="520" y="502"/>
      <point x="509" y="506"/>
      <point x="489" y="506" type="curve" smooth="yes"/>
      <point x="458" y="506"/>
      <point x="414" y="496"/>
      <point x="326" y="496" type="curve"/>
      <point x="323" y="450" type="line"/>
      <point x="384" y="450"/>
      <point x="410" y="445"/>
      <point x="410" y="408" type="curve" smooth="yes"/>
      <point x="410" y="390"/>
      <point x="403" y="365"/>
      <point x="394" y="330" type="curve" smooth="yes"/>
      <point x="283" y="-113" type="line" smooth="yes"/>
      <point x="269" y="-169"/>
      <point x="249" y="-200"/>
      <point x="222" y="-200" type="curve" smooth="yes"/>
      <point x="189" y="-200"/>
      <point x="198" y="-125"/>
      <point x="150" y="-125" type="curve" smooth="yes"/>
      <point x="119" y="-125"/>
      <point x="101" y="-148"/>
      <point x="101" y="-184" type="curve" smooth="yes"/>
      <point x="101" y="-227"/>
      <point x="138" y="-260"/>
      <point x="187" y="-260" type="curve" smooth="yes"/>
      <point x="278" y="-260"/>
      <point x="368" y="-148"/>
      <point x="397" y="-34" type="curve" smooth="yes"/>
    </contour>
    <component base="f"/>
  </outline>
</glyph>
<glyph name="ring.cap" format="1">
  <advance width="170"/>
  <outline>
    <contour>
      <point x="85" y="830" type="move" name="_topcap"/>
    </contour>
    <contour>
      <point x="17" y="878" type="curve" smooth="yes"/>
      <point x="17" y="849"/>
      <point x="36" y="830"/>
      <point x="66" y="830" type="curve" smooth="yes"/>
      <point x="110" y="830"/>
      <point x="152" y="869"/>
      <point x="152" y="911" type="curve" smooth="yes"/>
      <point x="152" y="941"/>
      <point x="132" y="960"/>
      <point x="102" y="960" type="curve" smooth="yes"/>
      <point x="58" y="960"/>
      <point x="17" y="920"/>
    </contour>
    <contour>
      <point x="93" y="928" type="curve" smooth="yes"/>
      <point x="109" y="928"/>
      <point x="119" y="918"/>
      <point x="119" y="903" type="curve" smooth="yes"/>
      <point x="119" y="881"/>
      <point x="97" y="861"/>
      <point x="74" y="861" type="curve" smooth="yes"/>
      <point x="59" y="861"/>
      <point x="49" y="870"/>
      <point x="49" y="885" type="curve" smooth="yes"/>
      <point x="49" y="907"/>
      <point x="70" y="928"/>
    </contour>
  </outline>
</glyph>
<glyph name="tilde.cap" format="1">
  <advance width="381"/>
  <outline>
    <contour>
      <point x="191" y="830" type="move" name="_topcap"/>
    </contour>
    <contour>
      <point x="54" y="846" type="line"/>
      <point x="63" y="875"/>
      <point x="74" y="886"/>
      <point x="96" y="886" type="curve" smooth="yes"/>
      <point x="140" y="886"/>
      <point x="203" y="838"/>
      <point x="262" y="838" type="curve" smooth="yes"/>
      <point x="315" y="838"/>
      <point x="354" y="896"/>
      <point x="361" y="956" type="curve"/>
      <point x="328" y="956" type="line"/>
      <point x="319" y="926"/>
      <point x="306" y="914"/>
      <point x="284" y="914" type="curve" smooth="yes"/>
      <point x="236" y="914"/>
      <point x="185" y="960"/>
      <point x="125" y="960" type="curve" smooth="yes"/>
      <point x="74" y="960"/>
      <point x="31" y="913"/>
      <point x="20" y="846" type="curve"/>
    </contour>
  </outline>
</glyph>
